<?xml version="1.0" encoding="utf-8"?>
<!-- Generator: Adobe Illustrator 27.9.0, SVG Export Plug-In . SVG Version: 6.00 Build 0)  -->
<svg version="1.1" id="Capa_1" xmlns="http://www.w3.org/2000/svg" xmlns:xlink="http://www.w3.org/1999/xlink" x="0px" y="0px"
	 viewBox="0 0 3252.87 716" style="enable-background:new 0 0 3252.87 716;" xml:space="preserve">
<style type="text/css">
	.st0{fill:#0F63A8;}
	.st1{fill:#4D4D4D;}
	.st2{fill:#0063AB;}
	.st3{fill:none;}
</style>
<g>
	<g>
		<g>
			<g>
				<path class="st0" d="M996.39,663.23l-19.64-35.64h-5.51v35.64h-23v-86.27c0-4.5,3.65-8.15,8.15-8.15h30.45
					c7.44,0,13.79,1.3,19.03,3.9c5.25,2.6,9.17,6.17,11.77,10.69c2.6,4.53,3.9,9.57,3.9,15.13c0,6.28-1.77,11.88-5.31,16.81
					c-3.54,4.93-8.77,8.43-15.67,10.49l21.79,37.39H996.39z M971.23,611.31h14.26c4.21,0,7.37-1.03,9.48-3.09
					c2.11-2.06,3.16-4.98,3.16-8.74c0-3.59-1.05-6.41-3.16-8.47c-2.11-2.06-5.27-3.09-9.48-3.09h-14.26V611.31z"/>
				<path class="st0" d="M1106.28,631.21h-52.05c0.36,4.66,1.86,8.23,4.51,10.69c2.64,2.47,5.89,3.7,9.75,3.7
					c4.43,0,7.82-1.44,10.17-4.33c1.52-1.87,3.83-2.93,6.24-2.93h6.7c6.79,0,10.96,7.95,6.65,13.2c-0.03,0.04-0.07,0.08-0.1,0.12
					c-3.28,3.95-7.38,7.04-12.31,9.28c-4.93,2.24-10.45,3.36-16.54,3.36c-7.35,0-13.9-1.57-19.64-4.71
					c-5.74-3.14-10.22-7.62-13.45-13.45c-3.23-5.83-4.84-12.64-4.84-20.45c0-7.8,1.59-14.62,4.77-20.45
					c3.18-5.83,7.64-10.31,13.38-13.45c5.74-3.14,12.33-4.71,19.77-4.71c7.26,0,13.72,1.53,19.37,4.57
					c5.65,3.05,10.06,7.4,13.25,13.05c3.18,5.65,4.77,12.24,4.77,19.77C1106.68,626.64,1106.55,628.88,1106.28,631.21z
					 M1083.14,618.44c0-3.95-1.34-7.08-4.04-9.42c-2.69-2.33-6.05-3.5-10.09-3.5c-3.86,0-7.11,1.12-9.75,3.36
					c-2.65,2.24-4.28,5.43-4.91,9.55H1083.14z"/>
				<path class="st0" d="M1118.99,605.25c3.18-5.83,7.62-10.31,13.32-13.45c5.69-3.14,12.22-4.71,19.57-4.71
					c9.42,0,17.28,2.47,23.61,7.4c1.28,1,2.48,2.08,3.58,3.25c6.26,6.61,1.14,17.6-7.97,17.6h-2.18c-3.12,0-5.8-1.75-7.71-4.22
					c-2.26-2.93-5.5-4.39-9.73-4.39c-4.22,0-7.58,1.64-10.09,4.91c-2.51,3.27-3.77,7.96-3.77,14.06c0,6.1,1.26,10.78,3.77,14.06
					c2.51,3.28,5.87,4.91,10.09,4.91c4.23,0,7.47-1.46,9.73-4.39c1.91-2.47,4.59-4.22,7.71-4.22h1.99c9.11,0,14.26,11.03,7.95,17.6
					c-1.06,1.11-2.21,2.15-3.44,3.11c-6.37,5.02-14.21,7.53-23.54,7.53c-7.35,0-13.88-1.57-19.57-4.71
					c-5.7-3.14-10.13-7.62-13.32-13.45c-3.18-5.83-4.77-12.64-4.77-20.45C1114.21,617.9,1115.8,611.08,1118.99,605.25z"/>
				<path class="st0" d="M1214.49,659.59c-5.87-3.14-10.49-7.62-13.85-13.45c-3.36-5.83-5.04-12.64-5.04-20.45
					c0-7.71,1.7-14.5,5.11-20.38c3.41-5.87,8.07-10.38,13.99-13.52c5.92-3.14,12.55-4.71,19.91-4.71c7.35,0,13.99,1.57,19.91,4.71
					c5.92,3.14,10.58,7.64,13.99,13.52c3.41,5.87,5.11,12.67,5.11,20.38c0,7.71-1.73,14.51-5.18,20.38
					c-3.45,5.87-8.16,10.38-14.12,13.52c-5.96,3.14-12.62,4.71-19.98,4.71C1226.97,664.3,1220.36,662.73,1214.49,659.59z
					 M1245.56,639.55c3.09-3.23,4.64-7.85,4.64-13.85c0-6.01-1.5-10.63-4.51-13.85c-3.01-3.23-6.7-4.84-11.1-4.84
					c-4.49,0-8.2,1.59-11.16,4.78c-2.96,3.18-4.44,7.82-4.44,13.92c0,6.01,1.46,10.63,4.37,13.85c2.91,3.23,6.57,4.84,10.96,4.84
					C1238.72,644.39,1242.47,642.78,1245.56,639.55z"/>
				<g>
					<path class="st0" d="M1403.87,595.84c5.51,5.65,8.27,13.5,8.27,23.54v43.85h-22.87v-40.76c0-4.84-1.28-8.59-3.83-11.23
						c-2.56-2.64-6.08-3.97-10.56-3.97c-4.49,0-8,1.32-10.56,3.97c-2.56,2.65-3.83,6.39-3.83,11.23v40.76h-22.87v-40.76
						c0-4.84-1.28-8.59-3.83-11.23c-2.56-2.64-6.08-3.97-10.56-3.97c-4.48,0-8,1.32-10.56,3.97c-2.56,2.65-3.83,6.39-3.83,11.23
						v40.76h-23V602.1h23v-4.51c2.33-3.14,5.38-5.63,9.15-7.47c3.77-1.84,8.02-2.76,12.78-2.76c5.65,0,10.69,1.21,15.13,3.63
						c4.44,2.42,7.91,5.87,10.42,10.36c2.6-4.12,6.14-7.49,10.63-10.09c4.48-2.6,9.37-3.9,14.66-3.9
						C1390.94,587.36,1398.36,590.19,1403.87,595.84z"/>
					<path class="st0" d="M1308.84,622.47v40.76h-23v-65.1c0-5.5,4.46-9.95,9.95-9.95h3.09c5.5,0,9.95,4.46,9.95,9.95l0,0V622.47z"
						/>
				</g>
				<path class="st0" d="M1498.63,631.21h-52.05c0.36,4.66,1.86,8.23,4.51,10.69c2.64,2.47,5.89,3.7,9.75,3.7
					c4.43,0,7.82-1.44,10.17-4.33c1.52-1.87,3.83-2.93,6.24-2.93h6.7c6.79,0,10.96,7.95,6.65,13.2c-0.03,0.04-0.07,0.08-0.1,0.12
					c-3.28,3.95-7.38,7.04-12.31,9.28c-4.93,2.24-10.45,3.36-16.54,3.36c-7.35,0-13.9-1.57-19.64-4.71
					c-5.74-3.14-10.22-7.62-13.45-13.45c-3.23-5.83-4.84-12.64-4.84-20.45c0-7.8,1.59-14.62,4.77-20.45
					c3.18-5.83,7.64-10.31,13.38-13.45c5.74-3.14,12.33-4.71,19.77-4.71c7.26,0,13.72,1.53,19.37,4.57
					c5.65,3.05,10.06,7.4,13.25,13.05c3.18,5.65,4.77,12.24,4.77,19.77C1499.04,626.64,1498.9,628.88,1498.63,631.21z
					 M1475.5,618.44c0-3.95-1.34-7.08-4.04-9.42c-2.69-2.33-6.05-3.5-10.09-3.5c-3.86,0-7.11,1.12-9.75,3.36
					c-2.65,2.24-4.28,5.43-4.91,9.55H1475.5z"/>
				<path class="st0" d="M1577.93,595.91c5.25,5.7,7.87,13.52,7.87,23.47v43.85h-22.87v-40.76c0-5.02-1.3-8.92-3.9-11.7
					c-2.6-2.78-6.1-4.17-10.49-4.17c-4.39,0-7.89,1.39-10.49,4.17c-2.6,2.78-3.9,6.68-3.9,11.7v40.76h-23v-65.1
					c0-5.5,4.46-9.95,9.95-9.95h3.09c5.5,0,9.95,4.46,9.95,9.95l0,0c2.33-3.32,5.47-5.94,9.42-7.87c3.95-1.93,8.38-2.89,13.32-2.89
					C1565.66,587.36,1572.68,590.21,1577.93,595.91z"/>
				<path class="st0" d="M1601.6,605.25c2.91-5.83,6.88-10.31,11.9-13.45c5.02-3.14,10.63-4.71,16.81-4.71
					c4.93,0,9.44,1.03,13.52,3.09c4.08,2.06,7.28,4.84,9.62,8.34v-23.34c0-6.35,5.15-11.5,11.5-11.5h0c6.35,0,11.5,5.15,11.5,11.5
					v88.04h-23v-10.76c-2.15,3.59-5.22,6.46-9.21,8.61c-3.99,2.15-8.63,3.23-13.92,3.23c-6.19,0-11.79-1.59-16.81-4.77
					c-5.02-3.18-8.99-7.71-11.9-13.59c-2.92-5.87-4.37-12.66-4.37-20.38C1597.23,617.85,1598.68,611.08,1601.6,605.25z
					 M1648.68,612.11c-3.18-3.32-7.06-4.98-11.64-4.98c-4.57,0-8.45,1.64-11.63,4.91c-3.18,3.27-4.78,7.78-4.78,13.52
					c0,5.74,1.59,10.29,4.78,13.65c3.18,3.36,7.06,5.04,11.63,5.04c4.57,0,8.45-1.66,11.64-4.98c3.18-3.32,4.77-7.85,4.77-13.59
					C1653.45,619.96,1651.86,615.43,1648.68,612.11z"/>
				<path class="st0" d="M1692.93,605.25c2.91-5.83,6.88-10.31,11.9-13.45c5.02-3.14,10.63-4.71,16.81-4.71
					c5.29,0,9.93,1.08,13.92,3.23c3.99,2.15,7.06,4.98,9.21,8.47l0,0c0-5.87,4.76-10.63,10.63-10.63h1.75
					c5.87,0,10.63,4.76,10.63,10.63v64.43h-23V652.6c-2.24,3.5-5.36,6.32-9.35,8.47c-3.99,2.15-8.63,3.23-13.92,3.23
					c-6.1,0-11.66-1.59-16.68-4.77c-5.02-3.18-8.99-7.71-11.9-13.59c-2.91-5.87-4.37-12.66-4.37-20.38
					C1688.56,617.85,1690.01,611.08,1692.93,605.25z M1740,612.11c-3.18-3.32-7.06-4.98-11.63-4.98c-4.57,0-8.45,1.64-11.64,4.91
					c-3.18,3.27-4.77,7.78-4.77,13.52c0,5.74,1.59,10.29,4.77,13.65c3.18,3.36,7.06,5.04,11.64,5.04c4.57,0,8.45-1.66,11.63-4.98
					c3.18-3.32,4.78-7.85,4.78-13.59C1744.78,619.96,1743.19,615.43,1740,612.11z"/>
				<path class="st0" d="M1784.66,605.25c3.18-5.83,7.62-10.31,13.32-13.45c5.69-3.14,12.22-4.71,19.57-4.71
					c9.41,0,17.28,2.47,23.61,7.4c1.28,1,2.47,2.08,3.58,3.25c6.26,6.61,1.14,17.6-7.97,17.6h-2.18c-3.12,0-5.8-1.75-7.71-4.22
					c-2.26-2.93-5.5-4.39-9.73-4.39c-4.22,0-7.58,1.64-10.09,4.91c-2.51,3.27-3.77,7.96-3.77,14.06c0,6.1,1.25,10.78,3.77,14.06
					c2.51,3.28,5.87,4.91,10.09,4.91c4.23,0,7.47-1.46,9.73-4.39c1.91-2.47,4.59-4.22,7.71-4.22h1.99c9.11,0,14.26,11.03,7.95,17.6
					c-1.06,1.11-2.21,2.14-3.44,3.11c-6.37,5.02-14.21,7.53-23.54,7.53c-7.35,0-13.88-1.57-19.57-4.71
					c-5.7-3.14-10.13-7.62-13.32-13.45c-3.18-5.83-4.77-12.64-4.77-20.45C1779.88,617.9,1781.47,611.08,1784.66,605.25z"/>
				<path class="st0" d="M1867.52,576.8c-2.56-2.37-3.83-5.31-3.83-8.81c0-3.59,1.28-6.57,3.83-8.94c2.56-2.38,5.85-3.56,9.89-3.56
					c3.95,0,7.2,1.19,9.75,3.56c2.56,2.38,3.83,5.36,3.83,8.94c0,3.5-1.28,6.44-3.83,8.81c-2.56,2.38-5.81,3.56-9.75,3.56
					C1873.37,580.37,1870.07,579.18,1867.52,576.8z M1888.84,599.67v63.55h-23v-63.55c0-6.35,5.15-11.5,11.5-11.5h0
					C1883.69,588.17,1888.84,593.32,1888.84,599.67z"/>
				<path class="st0" d="M1919.84,659.59c-5.87-3.14-10.49-7.62-13.85-13.45c-3.36-5.83-5.04-12.64-5.04-20.45
					c0-7.71,1.7-14.5,5.11-20.38c3.41-5.87,8.07-10.38,13.99-13.52c5.92-3.14,12.55-4.71,19.91-4.71c7.35,0,13.99,1.57,19.91,4.71
					c5.92,3.14,10.58,7.64,13.99,13.52c3.41,5.87,5.11,12.67,5.11,20.38c0,7.71-1.73,14.51-5.18,20.38
					c-3.45,5.87-8.16,10.38-14.12,13.52c-5.96,3.14-12.62,4.71-19.97,4.71C1932.33,664.3,1925.71,662.73,1919.84,659.59z
					 M1950.91,639.55c3.09-3.23,4.64-7.85,4.64-13.85c0-6.01-1.5-10.63-4.51-13.85c-3.01-3.23-6.7-4.84-11.1-4.84
					c-4.49,0-8.21,1.59-11.16,4.78c-2.96,3.18-4.44,7.82-4.44,13.92c0,6.01,1.46,10.63,4.37,13.85c2.91,3.23,6.57,4.84,10.96,4.84
					C1944.07,644.39,1947.82,642.78,1950.91,639.55z"/>
				<path class="st0" d="M2057.98,595.91c5.25,5.7,7.87,13.52,7.87,23.47v43.85h-22.87v-40.76c0-5.02-1.3-8.92-3.9-11.7
					c-2.6-2.78-6.1-4.17-10.49-4.17c-4.39,0-7.89,1.39-10.49,4.17c-2.6,2.78-3.9,6.68-3.9,11.7v40.76h-23v-65.1
					c0-5.5,4.46-9.95,9.95-9.95h3.09c5.5,0,9.95,4.46,9.95,9.95l0,0c2.33-3.32,5.47-5.94,9.42-7.87c3.95-1.93,8.38-2.89,13.32-2.89
					C2045.71,587.36,2052.73,590.21,2057.98,595.91z"/>
				<path class="st0" d="M2152.2,631.21h-52.05c0.36,4.66,1.86,8.23,4.51,10.69c2.64,2.47,5.9,3.7,9.75,3.7
					c4.43,0,7.82-1.44,10.17-4.33c1.52-1.87,3.83-2.93,6.24-2.93h6.7c6.79,0,10.96,7.95,6.65,13.2c-0.03,0.04-0.07,0.08-0.1,0.12
					c-3.28,3.95-7.38,7.04-12.31,9.28c-4.93,2.24-10.45,3.36-16.54,3.36c-7.35,0-13.9-1.57-19.64-4.71
					c-5.74-3.14-10.22-7.62-13.45-13.45c-3.23-5.83-4.84-12.64-4.84-20.45c0-7.8,1.59-14.62,4.77-20.45
					c3.18-5.83,7.64-10.31,13.38-13.45c5.74-3.14,12.33-4.71,19.77-4.71c7.26,0,13.72,1.53,19.37,4.57
					c5.65,3.05,10.06,7.4,13.25,13.05c3.18,5.65,4.78,12.24,4.78,19.77C2152.6,626.64,2152.47,628.88,2152.2,631.21z
					 M2129.06,618.44c0-3.95-1.35-7.08-4.04-9.42c-2.69-2.33-6.05-3.5-10.09-3.5c-3.86,0-7.11,1.12-9.75,3.36
					c-2.65,2.24-4.28,5.43-4.91,9.55H2129.06z"/>
				<path class="st0" d="M2177.75,660.94c-5.11-2.24-9.15-5.31-12.11-9.21c-0.03-0.04-0.06-0.08-0.09-0.12c-4-5.34,0.35-13,7.03-13
					h4.98c2.75,0,5.58,1.15,6.94,3.53c0.61,1.05,1.45,1.98,2.52,2.79c2.15,1.61,4.8,2.42,7.94,2.42c2.87,0,5.09-0.56,6.66-1.68
					c1.57-1.12,2.35-2.58,2.35-4.37c0-2.15-1.12-3.74-3.36-4.78c-2.24-1.03-5.87-2.17-10.89-3.43c-5.38-1.25-9.87-2.58-13.45-3.97
					c-3.59-1.39-6.68-3.59-9.28-6.59c-2.6-3-3.9-7.06-3.9-12.17c0-4.3,1.19-8.23,3.57-11.77c2.37-3.54,5.87-6.34,10.49-8.41
					c4.62-2.06,10.11-3.09,16.48-3.09c9.42,0,16.83,2.33,22.26,6.99c0.55,0.48,1.08,0.97,1.59,1.47c6.29,6.32,1.93,17.09-6.99,17.09
					l0,0c-3.26,0-6.25-1.63-8.13-4.3c-0.5-0.7-1.1-1.33-1.8-1.89c-1.93-1.52-4.46-2.29-7.6-2.29c-2.69,0-4.75,0.52-6.19,1.55
					c-1.44,1.03-2.15,2.44-2.15,4.24c0,2.15,1.14,3.77,3.43,4.84c2.29,1.08,5.85,2.15,10.69,3.23c5.56,1.44,10.09,2.85,13.59,4.24
					c3.5,1.39,6.57,3.63,9.21,6.73c2.64,3.09,4.01,7.24,4.1,12.44c0,4.39-1.23,8.32-3.7,11.77c-2.47,3.45-6.01,6.17-10.63,8.14
					c-4.62,1.97-9.98,2.96-16.07,2.96C2188.69,664.3,2182.87,663.18,2177.75,660.94z"/>
			</g>
			<g>
				<g>
					<path class="st0" d="M2384.99,554.77c-13.66,22.06-31.83,75.2-33.34,91.11c-0.25,2.51,0.75,4.01,2.26,4.01
						c5.64,0,16.92-15.04,28.07-31.96c0.88-1.38,1.63-2.76,3.13-2.76c1.88,0,3.13,1.25,1.25,5.39c-4.01,9.4-23.94,41.11-37.72,43.87
						c-6.77,1.25-16.04-6.14-14.91-18.3c0.75-7.14,3.26-17.55,6.77-28.83c-11.28,16.29-33.21,46.5-46.62,46.5
						c-8.02,0-16.04-8.02-15.16-18.17c1.13-10.9,9.27-26.19,16.79-36.85c8.9-12.41,28.57-31.83,44.49-31.83
						c6.39,0,10.15,2.76,12.28,5.89c5.26-14.41,8.52-21.93,10.65-26.82c2.51-5.76,7.77-19.93,13.66-19.93
						c3.89,0,14.04,3.88,13.53,9.52C2389.88,548.63,2387.99,549.63,2384.99,554.77z M2345.76,597.63c0-2.88-0.88-6.02-3.01-6.02
						c-8.02,0-22.94,15.29-31.33,27.7c-6.39,9.02-12.78,21.31-13.28,26.82c-0.12,1.63-0.25,3.63,2.38,3.63
						c4.51,0,18.42-15.29,29.33-29.45C2335.11,613.68,2341.12,604.65,2345.76,597.63z"/>
					<path class="st0" d="M2400.77,624.96c-4.51,7.64-7.52,15.92-7.9,23.94c-0.13,4.51,2.38,6.27,5.89,6.27
						c14.04,0,35.97-19.3,50.26-34.84c2.51-2.76,4.51-5.51,7.02-5.51c2.76,0,1.88,2.88-0.25,6.64c-5.14,9.4-38.98,44.99-60.16,44.99
						c-9.65,0-23.31-8.52-22.18-22.31c2.01-20.43,14.79-39.6,29.58-55.14c6.64-7.02,17.04-14.16,25.32-13.16
						c7.77,1,19.68,8.15,18.8,17.17c-1.13,13.53-26.57,34.84-38.1,34.84C2406.66,627.84,2402.65,626.96,2400.77,624.96z
						 M2403.4,620.57c3.01,0.38,4.51-0.25,5.64-0.63c8.4-2.88,23.69-15.67,24.44-24.06c0.38-3.89-2.76-3.51-3.51-3.51
						c-4.51,0-12.03,9.02-15.29,12.91C2410.92,609.92,2406.91,615.06,2403.4,620.57z"/>
					<path class="st0" d="M2604.67,561.16c-6.27,0-3.89-9.78-18.05-9.78c-5.01,0-11.15,3.01-15.92,5.89
						c-22.18,13.66-54.9,55.77-56.27,88.61c-0.38,11.53,5.39,19.3,16.79,19.3c23.31,0,52.14-23.19,78.08-48.63
						c0.63-0.88,1.5-1.13,2.26-1c2.38,0.25,1.13,4.01,0.12,5.14c-15.92,19.68-52.51,57.78-87.73,57.78
						c-15.92,0-32.71-12.66-31.71-34.97c1.88-41.23,52.01-107.91,90.36-107.91c15.04,0.13,24.69,12.53,24.31,21.93
						C2606.93,560.04,2606.05,561.16,2604.67,561.16z"/>
					<path class="st0" d="M2658.81,582.85c8.77,1.25,14.04,9.15,13.16,19.3c-2.51,26.44-37.47,63.54-57.65,63.54
						c-11.15,0-19.68-10.9-18.67-23.06c1.13-12.78,8.4-26.95,17.92-39.6c5.76-7.9,20.93-24.94,34.09-25.32
						C2650.66,577.71,2655.55,579.59,2658.81,582.85z M2654.92,591.62c-18.67,7.9-37.6,37.6-39.1,53.77
						c-0.38,3.13,0.37,8.77,5.89,8.77c11.4,0,38.98-31.46,40.86-52.14C2663.2,596.13,2659.56,592.12,2654.92,591.62z"/>
					<path class="st0" d="M2687.25,582.09c1.13-3.63,4.26-4.64,7.52-4.64c4.14,0.12,12.66,5.14,12.16,11.78
						c-0.5,5.14-6.52,17.3-12.66,29.08c3.01-3.89,6.27-8.02,9.9-11.78c6.89-7.64,25.32-28.32,34.21-28.07
						c7.77,0.25,13.16,8.9,12.16,15.92c-0.75,5.64-7.65,15.41-11.53,24.94c-4.64,10.53-8.9,21.31-9.78,27.57
						c-0.25,2.38,0.88,3.51,2.38,3.51c5.51,0.25,19.3-19.55,27.07-32.71c1.13-2.01,2.51-2.63,3.38-2.63c2.01,0,3.01,2.88,1.25,6.02
						c-7.14,14.54-27.2,43.49-38.48,43.49c-9.02,0-13.91-8.52-12.91-18.05c2.01-23.44,17.8-51.26,16.04-51.26
						c-6.77-0.25-30.83,27.82-39.6,43.61c-2.38,4.26-7.14,12.41-11.28,20.68c-2.63,5.14-5.64,5.77-7.9,5.77
						c-4.76-0.25-8.9-7.64-8.52-12.66c0.63-6.64,9.9-24.94,16.79-40.98C2681.36,602.4,2684.25,592.62,2687.25,582.09z"/>
					<path class="st0" d="M2829.24,550.39c-0.88,0.13-1.75-0.38-2.76-1c-2.76-2.01-2.51-1.13-4.76-1.25
						c-4.89,0-9.15,2.26-14.79,10.53c-6.27,9.27-13.91,23.06-21.31,38.85c11.28-0.12,23.56-1.76,32.34-3.89
						c3.26-0.75,6.02-0.88,5.89,0.75c-0.25,2.51-4.01,4.51-6.89,5.89c-9.52,4.51-24.94,10.15-38.1,12.28
						c-14.66,34.34-27.82,73.19-31.08,91.49c-0.75,3.51-0.5,9.65-4.39,9.65c-3.01,0-3.76-9.9-3.51-14.16
						c0.25-1.38,0.38-2.76,0.5-4.26c1.76-20.55,7.27-51.39,19.18-84.35c-0.75-0.75-1.38-1.63-1.88-2.51
						c-0.63-1.25-0.75-2.63-0.63-4.14c0.25-2.88,1.88-6.02,4.51-7.4c1.13-0.63,2.38-1,3.76-1.13c14.29-34.21,30.2-60.28,49.5-60.66
						c10.4-0.12,15.79,7.9,16.67,11.41C2832,549.01,2830.62,550.26,2829.24,550.39z"/>
					<path class="st0" d="M2831.99,583.22c4.64,0.12,11.91,4.14,11.28,11.28c-0.38,4.51-7.65,12.41-10.4,17.92
						c-5.14,10.9-10.78,24.82-11.66,33.84c-0.38,4.01,0,6.27,1.25,6.27c7.39,0,26.07-21.81,33.96-34.72
						c0.88-1.63,1.63-2.76,3.13-2.76c1.63,0,2.26,1.88,1.13,4.76c-4.64,13.41-32.71,46-44.24,46c-10.4,0-14.04-10.03-12.78-22.06
						c1.25-14.29,8.4-32.08,13.41-43.49C2819.46,595.13,2824.48,583.22,2831.99,583.22z M2841.52,574.82
						c-4.76,0-9.15-2.63-8.65-8.52c0.5-6.39,6.39-19.8,15.29-19.8c5.14,0,10.4,3.38,9.78,9.02
						C2857.44,561.54,2849.42,574.82,2841.52,574.82z"/>
					<path class="st0" d="M2920.35,589.36c1.88,0.37,5.26,2,7.9,4.01c2.13,1.63,3.63,3.26,3.26,6.39
						c-0.38,5.14-4.76,10.65-6.89,14.92c-6.27,13.03-16.54,40.86-12.66,40.86c5.64,0,19.68-14.66,32.71-37.1
						c1.25-2.13,3.38-3.38,4.89-3.38c1.5,0,2.38,1.5,1,4.76c-5.39,12.66-29.95,45.75-39.98,48.13c-8.65,2.01-15.67-6.14-15.67-14.66
						c0-1.88,0.13-3.76,0.25-5.51c0.63-7.77,3.38-17.3,5.89-24.56c-7.65,11.4-29.95,40.36-43.36,40.36
						c-8.65,0-12.91-10.15-12.16-18.8c2.38-24.82,35.09-67.68,58.4-67.68c5.14,0,14.16,6.02,16.04,11.4L2920.35,589.36z
						 M2908.32,596.76c0.25-1.63-0.38-2.88-2.51-2.88c-16.42,0-42.11,41.36-42.61,54.39c0.13,1.13,0.5,1.76,1.38,1.76
						c6.14,0,25.19-24.31,33.71-34.84C2901.55,611.05,2907.94,601.02,2908.32,596.76z"/>
					<path class="st0" d="M2957.69,582.09c1.13-3.63,4.26-4.64,7.52-4.64c4.14,0.12,12.66,5.14,12.16,11.78
						c-0.5,5.14-6.52,17.3-12.66,29.08c3.01-3.89,6.27-8.02,9.9-11.78c6.89-7.64,25.32-28.32,34.22-28.07
						c7.77,0.25,13.16,8.9,12.16,15.92c-0.75,5.64-7.65,15.41-11.53,24.94c-4.64,10.53-8.9,21.31-9.78,27.57
						c-0.25,2.38,0.88,3.51,2.38,3.51c5.51,0.25,19.3-19.55,27.07-32.71c1.13-2.01,2.51-2.63,3.38-2.63c2.01,0,3.01,2.88,1.25,6.02
						c-7.14,14.54-27.2,43.49-38.48,43.49c-9.02,0-13.91-8.52-12.91-18.05c2.01-23.44,17.8-51.26,16.04-51.26
						c-6.77-0.25-30.83,27.82-39.6,43.61c-2.38,4.26-7.14,12.41-11.28,20.68c-2.63,5.14-5.64,5.77-7.9,5.77
						c-4.76-0.25-8.9-7.64-8.52-12.66c0.63-6.64,9.9-24.94,16.79-40.98C2951.8,602.4,2954.68,592.62,2957.69,582.09z"/>
					<path class="st0" d="M3055.44,599.64c-2.38,1.5-6.02,3.76-9.65,3.76c-3.88,0-10.4-7.77-9.9-12.03c0.25-2,0.75-4.26,2.76-6.27
						c4.26-4.64,21.68-10.03,34.47-10.03c6.14,0,11.53,0.88,14.66,3.38c3.01,2.51,5.64,10.28,5.26,14.66
						c-0.12,0.75-0.25,1.38-0.38,2.01c-7.65,19.18-44.74,40.73-59.03,51.64c13.79-0.75,43.24-3.76,52.89-6.64
						c3.89-1.13,5.64-0.25,5.51,1.75c-0.12,1.13-0.88,2.63-2.76,3.64c-9.28,5.14-51.26,21.43-70.06,21.56
						c-4.26,0-5.39-5.01-4.64-8.52c0.63-2.38,2.51-8.52,5.14-11.15c5.26-5.51,13.16-10.65,17.17-13.66
						c14.91-10.9,37.1-29.2,40.73-39.85C3076.24,593.25,3062.71,594.63,3055.44,599.64z"/>
					<path class="st0" d="M3158.7,589.36c1.88,0.37,5.26,2,7.9,4.01c2.13,1.63,3.63,3.26,3.26,6.39
						c-0.38,5.14-4.76,10.65-6.89,14.92c-6.27,13.03-16.54,40.86-12.66,40.86c5.64,0,19.68-14.66,32.71-37.1
						c1.25-2.13,3.38-3.38,4.89-3.38c1.5,0,2.38,1.5,1,4.76c-5.39,12.66-29.95,45.75-39.98,48.13c-8.65,2.01-15.67-6.14-15.67-14.66
						c0-1.88,0.13-3.76,0.25-5.51c0.63-7.77,3.38-17.3,5.89-24.56c-7.64,11.4-29.95,40.36-43.36,40.36
						c-8.65,0-12.91-10.15-12.16-18.8c2.38-24.82,35.09-67.68,58.4-67.68c5.14,0,14.16,6.02,16.04,11.4L3158.7,589.36z
						 M3146.67,596.76c0.25-1.63-0.38-2.88-2.51-2.88c-16.42,0-42.11,41.36-42.61,54.39c0.13,1.13,0.5,1.76,1.38,1.76
						c6.14,0,25.19-24.31,33.71-34.84C3139.91,611.05,3146.3,601.02,3146.67,596.76z"/>
				</g>
				<g>
					<g>
						<path class="st0" d="M3201.43,574.36c-1.19,0.03-2.17,0.26-3.1,0.73c-0.51,0.27-0.99,0.58-1.39,0.97
							c-0.43,0.41-0.84,0.9-1.15,1.42c-0.97,1.58-1.23,3.3-0.81,5.1c0.21,0.88,0.63,1.67,1.18,2.39c0.55,0.72,1.23,1.27,2.01,1.68
							c0.47,0.26,0.97,0.46,1.48,0.61c0.96,0.27,1.94,0.3,2.91,0.11c1-0.2,1.91-0.59,2.71-1.23c0.85-0.66,1.54-1.47,1.99-2.44
							c0.51-1.13,0.73-2.32,0.57-3.57c-0.11-0.79-0.35-1.54-0.72-2.23c-0.31-0.6-0.73-1.13-1.2-1.62c-0.97-0.96-2.15-1.53-3.48-1.8
							C3202.06,574.39,3201.66,574.39,3201.43,574.36"/>
					</g>
					<g>
						<path class="st0" d="M3197.69,598.81c2.08,0,4.14,0.02,6.22,0c2.22-0.03,4.44-0.07,6.67-0.12c0.86-0.02,1.73-0.04,2.59-0.08
							c0.16-0.01,0.33-0.07,0.45-0.17c1.11-0.85,2.18-1.76,3.09-2.82c0.52-0.62,0.99-1.29,1.47-1.94c0.3-0.39,0.58-0.8,0.82-1.23
							c0.44-0.82,0.87-1.65,1.26-2.51c0.28-0.64,0.49-1.31,0.7-1.98c0.23-0.75,0.44-1.51,0.61-2.27c0.1-0.42,0.13-0.87,0.13-1.3
							c0.02-1.21,0.01-2.42,0.01-3.63c0-0.65-0.06-1.27-0.26-1.88c-0.29-0.95-0.88-1.63-1.83-2c-1-0.39-1.98-0.25-2.9,0.15
							c-0.66,0.29-1.16,0.79-1.43,1.5c-0.17,0.42-0.22,0.86-0.23,1.3c-0.03,1.11-0.01,2.23-0.06,3.35
							c-0.03,0.56-0.16,1.11-0.28,1.66c-0.17,0.85-0.46,1.68-0.86,2.44c-0.38,0.71-0.81,1.38-1.23,2.05
							c-0.49,0.74-1.06,1.42-1.71,2.02c-0.54,0.5-1.14,0.95-1.72,1.4c-0.1,0.08-0.18,0.05-0.25-0.05c-0.19-0.29-0.37-0.6-0.6-0.86
							c-0.3-0.34-0.63-0.65-0.97-0.94c-0.38-0.3-0.76-0.62-1.19-0.84c-0.69-0.39-1.43-0.66-2.21-0.84
							c-1.98-0.44-3.88-0.22-5.72,0.65c-0.98,0.46-1.8,1.12-2.55,1.87c-0.26,0.25-0.44,0.56-0.66,0.83
							c-0.22,0.29-0.29,0.29-0.57,0.06c-0.62-0.48-1.2-1-1.73-1.59c-0.75-0.84-1.38-1.76-1.88-2.78c-0.36-0.72-0.65-1.45-0.9-2.21
							c-0.14-0.43-0.25-0.88-0.32-1.33c-0.16-1.05-0.28-2.11-0.41-3.16c-0.15-1.15-0.13-2.31-0.12-3.45
							c0.01-1.21,0.03-2.42,0.04-3.63c0.01-0.78,0.01-1.55-0.01-2.33c-0.01-0.55-0.07-1.1-0.31-1.61c-0.52-1.08-1.35-1.74-2.58-1.89
							c-0.61-0.06-1.21-0.03-1.78,0.19c-1.04,0.4-1.76,1.12-1.99,2.23c-0.1,0.46-0.1,0.95-0.12,1.43c-0.06,1.33-0.09,2.67-0.13,4
							c-0.01,0.31,0,0.62,0,0.92c-0.01,1.58-0.07,3.16-0.02,4.74c0.04,1.06,0.19,2.12,0.38,3.18c0.22,1.29,0.59,2.55,1.09,3.75
							c0.33,0.78,0.64,1.57,1.04,2.32c0.38,0.73,0.85,1.4,1.29,2.1c0.6,0.95,1.32,1.78,2.08,2.6c0.73,0.79,1.55,1.45,2.35,2.15
							c0.52,0.47,1.08,0.58,1.75,0.56c1.39-0.04,2.77-0.01,4.16-0.02H3197.69z"/>
					</g>
				</g>
			</g>
		</g>
		<g>
			<g>
				<path class="st0" d="M1216.86,37.52c4.01-7.26,9.6-12.91,16.77-16.97c7.17-4.05,15.3-6.08,24.38-6.08
					c11.13,0,20.66,2.94,28.59,8.82c2.08,1.54,3.97,3.23,5.69,5.06c6.73,7.19,1.46,18.99-8.39,18.99h-0.04
					c-3.51,0-6.93-1.49-9.1-4.25c-1.5-1.9-3.27-3.47-5.33-4.7c-3.43-2.05-7.33-3.07-11.69-3.07c-7.04,0-12.74,2.45-17.1,7.35
					c-4.37,4.9-6.55,11.45-6.55,19.64c0,8.2,2.18,14.74,6.55,19.64c4.36,4.9,10.06,7.35,17.1,7.35c4.36,0,8.26-1.02,11.69-3.07
					c2.06-1.23,3.83-2.79,5.33-4.7c2.17-2.76,5.59-4.25,9.1-4.25l0,0c9.87,0,15.15,11.83,8.37,19.01c-1.7,1.8-3.58,3.46-5.64,4.98
					c-7.93,5.83-17.46,8.75-28.59,8.75c-9.08,0-17.21-2.02-24.38-6.08c-7.17-4.05-12.76-9.69-16.77-16.9
					c-4.01-7.21-6.01-15.45-6.01-24.72C1210.85,53.04,1212.85,44.78,1216.86,37.52z"/>
			</g>
			<g>
				<path class="st0" d="M1330.75,105.72c-5.83-3.12-10.42-7.57-13.76-13.36c-3.34-5.79-5.01-12.56-5.01-20.31
					c0-7.66,1.69-14.41,5.08-20.24c3.38-5.83,8.02-10.31,13.89-13.43c5.88-3.12,12.47-4.68,19.77-4.68c7.3,0,13.9,1.56,19.77,4.68
					c5.88,3.12,10.51,7.59,13.9,13.43c3.38,5.84,5.08,12.58,5.08,20.24c0,7.66-1.72,14.41-5.14,20.24
					c-3.43,5.83-8.11,10.31-14.03,13.43c-5.92,3.12-12.54,4.68-19.84,4.68C1343.16,110.4,1336.59,108.84,1330.75,105.72z
					 M1361.62,85.81c3.07-3.21,4.61-7.79,4.61-13.76c0-5.97-1.49-10.56-4.48-13.76c-2.99-3.21-6.66-4.81-11.02-4.81
					c-4.45,0-8.15,1.58-11.09,4.74c-2.94,3.16-4.41,7.77-4.41,13.83c0,5.97,1.45,10.56,4.34,13.76c2.89,3.21,6.52,4.81,10.89,4.81
					C1354.82,90.62,1358.54,89.02,1361.62,85.81z"/>
			</g>
			<g>
				<path class="st0" d="M1518.87,42.39c5.48,5.61,8.22,13.41,8.22,23.38v43.55h-22.71V68.85c0-4.81-1.27-8.53-3.81-11.16
					c-2.54-2.63-6.04-3.94-10.49-3.94c-4.45,0-7.95,1.32-10.49,3.94c-2.54,2.63-3.81,6.35-3.81,11.16v40.48h-22.71V68.85
					c0-4.81-1.27-8.53-3.81-11.16c-2.54-2.63-6.04-3.94-10.49-3.94c-4.45,0-7.95,1.32-10.49,3.94c-2.54,2.63-3.81,6.35-3.81,11.16
					v40.48h-22.85v-65.2c0-5.17,4.19-9.35,9.35-9.35h4.14c5.17,0,9.35,4.19,9.35,9.35v0c2.32-3.12,5.34-5.59,9.08-7.41
					c3.74-1.82,7.97-2.74,12.69-2.74c5.61,0,10.62,1.2,15.03,3.61c4.41,2.41,7.86,5.84,10.35,10.29c2.58-4.1,6.1-7.44,10.56-10.02
					c4.45-2.58,9.31-3.87,14.56-3.87C1506.02,33.97,1513.39,36.78,1518.87,42.39z"/>
			</g>
			<g>
				<path class="st0" d="M1616.73,44.66v64.66h-22.85V99.17c-2.32,3.3-5.46,5.95-9.42,7.95c-3.96,2-8.35,3.01-13.16,3.01
					c-5.7,0-10.73-1.27-15.1-3.81c-4.36-2.54-7.75-6.21-10.15-11.02s-3.61-10.47-3.61-16.97V44.66c0-5.46,4.43-9.89,9.89-9.89h2.94
					c5.46,0,9.89,4.43,9.89,9.89v30.6c0,4.99,1.29,8.86,3.87,11.62c2.58,2.76,6.06,4.14,10.42,4.14c4.45,0,7.97-1.38,10.55-4.14
					c2.58-2.76,3.87-6.63,3.87-11.62v-30.6c0-5.46,4.43-9.89,9.89-9.89h3.07C1612.31,34.78,1616.73,39.2,1616.73,44.66z"/>
			</g>
			<g>
				<path class="st0" d="M1699.5,42.46c5.21,5.66,7.82,13.43,7.82,23.31v43.55h-22.71V68.85c0-4.99-1.29-8.86-3.87-11.62
					c-2.58-2.76-6.06-4.14-10.42-4.14c-4.36,0-7.84,1.38-10.42,4.14c-2.58,2.76-3.87,6.64-3.87,11.62v40.48h-22.85V44.66
					c0-5.46,4.43-9.89,9.89-9.89h3.07c5.46,0,9.89,4.43,9.89,9.89v0c2.32-3.29,5.43-5.9,9.35-7.82c3.92-1.91,8.33-2.87,13.23-2.87
					C1687.32,33.97,1694.29,36.8,1699.5,42.46z"/>
			</g>
			<g>
				<path class="st0" d="M1724.88,23.49c-2.54-2.36-3.81-5.28-3.81-8.75c0-3.56,1.27-6.52,3.81-8.89c2.54-2.36,5.81-3.54,9.82-3.54
					c3.92,0,7.15,1.18,9.69,3.54c2.54,2.36,3.81,5.32,3.81,8.89c0,3.47-1.27,6.39-3.81,8.75c-2.54,2.36-5.77,3.54-9.69,3.54
					C1730.69,27.03,1727.42,25.85,1724.88,23.49z M1746.06,46.2v63.13h-22.85V46.2c0-6.31,5.11-11.42,11.42-11.42l0,0
					C1740.95,34.78,1746.06,39.89,1746.06,46.2z"/>
			</g>
			<g>
				<path class="st0" d="M1762.43,51.74c2.89-5.79,6.83-10.24,11.82-13.36c4.99-3.12,10.56-4.68,16.7-4.68
					c4.9,0,9.37,1.02,13.43,3.07c4.05,2.05,7.24,4.81,9.55,8.28V21.88c0-6.31,5.11-11.42,11.42-11.42h0
					c6.31,0,11.42,5.11,11.42,11.42v87.44h-22.85V98.64c-2.14,3.56-5.19,6.41-9.15,8.55c-3.96,2.14-8.57,3.21-13.83,3.21
					c-6.15,0-11.71-1.58-16.7-4.74c-4.99-3.16-8.93-7.66-11.82-13.49c-2.9-5.83-4.34-12.58-4.34-20.24
					C1758.08,64.26,1759.53,57.53,1762.43,51.74z M1809.19,58.56c-3.16-3.29-7.01-4.94-11.56-4.94c-4.54,0-8.4,1.63-11.56,4.88
					c-3.16,3.25-4.74,7.73-4.74,13.43c0,5.7,1.58,10.22,4.74,13.56c3.16,3.34,7.01,5.01,11.56,5.01c4.54,0,8.39-1.65,11.56-4.94
					c3.16-3.29,4.74-7.79,4.74-13.49C1813.93,66.35,1812.35,61.85,1809.19,58.56z"/>
			</g>
			<g>
				<path class="st0" d="M1853.14,51.74c2.89-5.79,6.83-10.24,11.82-13.36c4.99-3.12,10.55-4.68,16.7-4.68
					c5.25,0,9.86,1.07,13.83,3.21c3.96,2.14,7.01,4.94,9.15,8.42v0c0-5.83,4.73-10.56,10.55-10.56h1.74
					c5.83,0,10.56,4.73,10.56,10.56v64h-22.85V98.77c-2.23,3.47-5.32,6.28-9.29,8.42c-3.96,2.14-8.57,3.21-13.83,3.21
					c-6.06,0-11.58-1.58-16.57-4.74c-4.99-3.16-8.93-7.66-11.82-13.49c-2.9-5.83-4.34-12.58-4.34-20.24
					C1848.8,64.26,1850.25,57.53,1853.14,51.74z M1899.9,58.56c-3.16-3.29-7.01-4.94-11.56-4.94c-4.54,0-8.4,1.63-11.56,4.88
					c-3.16,3.25-4.74,7.73-4.74,13.43c0,5.7,1.58,10.22,4.74,13.56c3.16,3.34,7.01,5.01,11.56,5.01c4.54,0,8.39-1.65,11.56-4.94
					c3.16-3.29,4.74-7.79,4.74-13.49C1904.64,66.35,1903.06,61.85,1899.9,58.56z"/>
			</g>
			<g>
				<path class="st0" d="M1943.86,51.74c2.89-5.79,6.83-10.24,11.82-13.36c4.99-3.12,10.56-4.68,16.7-4.68
					c4.9,0,9.37,1.02,13.43,3.07c4.05,2.05,7.24,4.81,9.55,8.28V21.88c0-6.31,5.11-11.42,11.42-11.42h0
					c6.31,0,11.42,5.11,11.42,11.42v87.44h-22.85V98.64c-2.14,3.56-5.19,6.41-9.15,8.55c-3.96,2.14-8.57,3.21-13.83,3.21
					c-6.15,0-11.71-1.58-16.7-4.74c-4.99-3.16-8.93-7.66-11.82-13.49c-2.9-5.83-4.34-12.58-4.34-20.24
					C1939.51,64.26,1940.96,57.53,1943.86,51.74z M1990.62,58.56c-3.16-3.29-7.01-4.94-11.56-4.94c-4.54,0-8.4,1.63-11.56,4.88
					c-3.16,3.25-4.74,7.73-4.74,13.43c0,5.7,1.58,10.22,4.74,13.56c3.16,3.34,7.01,5.01,11.56,5.01c4.54,0,8.39-1.65,11.56-4.94
					c3.16-3.29,4.74-7.79,4.74-13.49C1995.36,66.35,1993.78,61.85,1990.62,58.56z"/>
			</g>
			<g>
				<path class="st0" d="M2085.94,21.88v87.44h-22.85V21.88c0-6.31,5.11-11.42,11.42-11.42l0,0
					C2080.83,10.46,2085.94,15.57,2085.94,21.88z"/>
			</g>
			<g>
				<path class="st0" d="M2116.74,105.72c-5.83-3.12-10.42-7.57-13.76-13.36c-3.34-5.79-5.01-12.56-5.01-20.31
					c0-7.66,1.69-14.41,5.08-20.24c3.38-5.83,8.02-10.31,13.89-13.43c5.88-3.12,12.47-4.68,19.77-4.68c7.3,0,13.9,1.56,19.77,4.68
					c5.88,3.12,10.51,7.59,13.9,13.43c3.38,5.84,5.08,12.58,5.08,20.24c0,7.66-1.72,14.41-5.14,20.24
					c-3.43,5.83-8.11,10.31-14.03,13.43c-5.92,3.12-12.54,4.68-19.84,4.68C2129.14,110.4,2122.57,108.84,2116.74,105.72z
					 M2147.6,85.81c3.07-3.21,4.61-7.79,4.61-13.76c0-5.97-1.49-10.56-4.48-13.76c-2.99-3.21-6.66-4.81-11.02-4.81
					c-4.45,0-8.15,1.58-11.09,4.74c-2.94,3.16-4.41,7.77-4.41,13.83c0,5.97,1.45,10.56,4.34,13.76c2.89,3.21,6.52,4.81,10.89,4.81
					C2140.81,90.62,2144.53,89.02,2147.6,85.81z"/>
			</g>
			<g>
				<path class="st0" d="M2187.81,51.74c3.16-5.79,7.57-10.24,13.23-13.36c5.65-3.12,12.13-4.68,19.44-4.68
					c9.35,0,17.17,2.45,23.45,7.35c0.81,0.63,1.58,1.3,2.32,2c7.1,6.72,2.1,18.71-7.67,18.71h-0.24c-3.41,0-6.57-1.63-8.68-4.31
					c-2.24-2.83-5.43-4.24-9.57-4.24c-4.19,0-7.53,1.63-10.02,4.88c-2.49,3.25-3.74,7.91-3.74,13.96c0,6.06,1.25,10.71,3.74,13.96
					c2.49,3.25,5.83,4.88,10.02,4.88c4.14,0,7.33-1.41,9.57-4.24c2.12-2.67,5.28-4.31,8.68-4.31l0,0c10.01,0,14.74,12.32,7.33,19.05
					c-0.58,0.53-1.18,1.04-1.8,1.53c-6.33,4.99-14.12,7.48-23.38,7.48c-7.3,0-13.78-1.56-19.44-4.68
					c-5.66-3.12-10.07-7.57-13.23-13.36c-3.16-5.79-4.74-12.56-4.74-20.31S2184.65,57.53,2187.81,51.74z"/>
			</g>
			<g>
				<path class="st0" d="M2268.24,51.74c2.89-5.79,6.83-10.24,11.82-13.36c4.99-3.12,10.55-4.68,16.7-4.68
					c5.25,0,9.86,1.07,13.83,3.21c3.96,2.14,7.01,4.94,9.15,8.42v0c0-5.83,4.73-10.56,10.55-10.56h1.74
					c5.83,0,10.55,4.73,10.55,10.56v64h-22.85V98.77c-2.23,3.47-5.32,6.28-9.29,8.42c-3.96,2.14-8.57,3.21-13.83,3.21
					c-6.06,0-11.58-1.58-16.57-4.74c-4.99-3.16-8.93-7.66-11.82-13.49c-2.9-5.83-4.34-12.58-4.34-20.24
					C2263.9,64.26,2265.35,57.53,2268.24,51.74z M2315,58.56c-3.16-3.29-7.01-4.94-11.56-4.94c-4.54,0-8.4,1.63-11.56,4.88
					c-3.16,3.25-4.74,7.73-4.74,13.43c0,5.7,1.58,10.22,4.74,13.56c3.16,3.34,7.01,5.01,11.56,5.01c4.54,0,8.39-1.65,11.56-4.94
					c3.16-3.29,4.74-7.79,4.74-13.49C2319.75,66.35,2318.16,61.85,2315,58.56z"/>
			</g>
			<g>
				<path class="st0" d="M2382,21.88v87.44h-22.85V21.88c0-6.31,5.11-11.42,11.42-11.42l0,0C2376.89,10.46,2382,15.57,2382,21.88z"
					/>
			</g>
			<g>
				<path class="st0" d="M2427.09,51.74c3.16-5.79,7.57-10.24,13.23-13.36c5.65-3.12,12.13-4.68,19.44-4.68
					c9.35,0,17.17,2.45,23.45,7.35c0.81,0.63,1.58,1.3,2.32,2c7.1,6.72,2.1,18.71-7.67,18.71h-0.24c-3.41,0-6.57-1.63-8.68-4.31
					c-2.24-2.83-5.43-4.24-9.57-4.24c-4.19,0-7.53,1.63-10.02,4.88c-2.49,3.25-3.74,7.91-3.74,13.96c0,6.06,1.25,10.71,3.74,13.96
					c2.49,3.25,5.83,4.88,10.02,4.88c4.14,0,7.33-1.41,9.57-4.24c2.12-2.67,5.28-4.31,8.68-4.31l0,0c10.01,0,14.74,12.32,7.33,19.05
					c-0.58,0.53-1.18,1.04-1.8,1.53c-6.33,4.99-14.12,7.48-23.38,7.48c-7.3,0-13.78-1.56-19.44-4.68
					c-5.66-3.12-10.07-7.57-13.23-13.36c-3.16-5.79-4.74-12.56-4.74-20.31S2423.93,57.53,2427.09,51.74z"/>
			</g>
			<g>
				<path class="st0" d="M2509.39,23.49c-2.54-2.36-3.81-5.28-3.81-8.75c0-3.56,1.27-6.52,3.81-8.89c2.54-2.36,5.81-3.54,9.82-3.54
					c3.92,0,7.15,1.18,9.69,3.54c2.54,2.36,3.81,5.32,3.81,8.89c0,3.47-1.27,6.39-3.81,8.75c-2.54,2.36-5.77,3.54-9.69,3.54
					C2515.2,27.03,2511.93,25.85,2509.39,23.49z M2530.57,46.2v63.13h-22.85V46.2c0-6.31,5.11-11.42,11.42-11.42l0,0
					C2525.46,34.78,2530.57,39.89,2530.57,46.2z"/>
			</g>
			<g>
				<path class="st0" d="M2620.75,46.13v63.19h-22.85V99.17c-2.32,3.3-5.46,5.95-9.42,7.95c-3.96,2-8.35,3.01-13.16,3.01
					c-5.7,0-10.73-1.27-15.1-3.81c-4.36-2.54-7.75-6.21-10.15-11.02c-2.41-4.81-3.61-10.47-3.61-16.97v-32.2
					c0-6.27,5.08-11.36,11.36-11.36l0,0c6.27,0,11.36,5.08,11.36,11.36v29.13c0,4.99,1.29,8.86,3.88,11.62
					c2.58,2.76,6.06,4.14,10.42,4.14c4.45,0,7.97-1.38,10.55-4.14c2.58-2.76,3.87-6.63,3.87-11.62V46.13
					c0-6.27,5.08-11.36,11.36-11.36h0.13C2615.67,34.78,2620.75,39.86,2620.75,46.13z"/>
			</g>
			<g>
				<path class="st0" d="M2636.98,51.74c2.89-5.79,6.83-10.24,11.82-13.36c4.99-3.12,10.55-4.68,16.7-4.68
					c4.9,0,9.37,1.02,13.43,3.07c4.05,2.05,7.24,4.81,9.55,8.28V21.88c0-6.31,5.11-11.42,11.42-11.42l0,0
					c6.31,0,11.42,5.11,11.42,11.42v87.44h-22.85V98.64c-2.14,3.56-5.19,6.41-9.15,8.55c-3.96,2.14-8.57,3.21-13.83,3.21
					c-6.15,0-11.71-1.58-16.7-4.74c-4.99-3.16-8.93-7.66-11.82-13.49c-2.9-5.83-4.34-12.58-4.34-20.24
					C2632.64,64.26,2634.09,57.53,2636.98,51.74z M2683.75,58.56c-3.16-3.29-7.01-4.94-11.56-4.94c-4.54,0-8.4,1.63-11.56,4.88
					c-3.16,3.25-4.74,7.73-4.74,13.43c0,5.7,1.58,10.22,4.74,13.56c3.16,3.34,7.01,5.01,11.56,5.01c4.54,0,8.39-1.65,11.56-4.94
					c3.16-3.29,4.74-7.79,4.74-13.49C2688.49,66.35,2686.91,61.85,2683.75,58.56z"/>
			</g>
			<g>
				<path class="st0" d="M2727.7,51.74c2.89-5.79,6.83-10.24,11.82-13.36c4.99-3.12,10.55-4.68,16.7-4.68
					c5.25,0,9.86,1.07,13.83,3.21c3.96,2.14,7.01,4.94,9.15,8.42v0c0-5.83,4.73-10.56,10.55-10.56h1.74
					c5.83,0,10.55,4.73,10.55,10.56v64h-22.85V98.77c-2.23,3.47-5.32,6.28-9.29,8.42c-3.96,2.14-8.57,3.21-13.83,3.21
					c-6.06,0-11.58-1.58-16.57-4.74c-4.99-3.16-8.93-7.66-11.82-13.49c-2.9-5.83-4.34-12.58-4.34-20.24
					C2723.36,64.26,2724.8,57.53,2727.7,51.74z M2774.46,58.56c-3.16-3.29-7.01-4.94-11.56-4.94c-4.54,0-8.4,1.63-11.56,4.88
					c-3.16,3.25-4.74,7.73-4.74,13.43c0,5.7,1.58,10.22,4.74,13.56c3.16,3.34,7.01,5.01,11.56,5.01c4.54,0,8.39-1.65,11.56-4.94
					c3.16-3.29,4.74-7.79,4.74-13.49C2779.2,66.35,2777.62,61.85,2774.46,58.56z"/>
			</g>
			<g>
				<path class="st0" d="M2818.41,51.74c2.89-5.79,6.83-10.24,11.82-13.36c4.99-3.12,10.56-4.68,16.7-4.68
					c4.9,0,9.37,1.02,13.43,3.07c4.05,2.05,7.24,4.81,9.55,8.28V21.88c0-6.31,5.11-11.42,11.42-11.42l0,0
					c6.31,0,11.42,5.11,11.42,11.42v87.44h-22.85V98.64c-2.14,3.56-5.19,6.41-9.15,8.55c-3.96,2.14-8.57,3.21-13.83,3.21
					c-6.15,0-11.71-1.58-16.7-4.74c-4.99-3.16-8.93-7.66-11.82-13.49c-2.9-5.83-4.34-12.58-4.34-20.24
					C2814.07,64.26,2815.52,57.53,2818.41,51.74z M2865.18,58.56c-3.16-3.29-7.01-4.94-11.56-4.94c-4.54,0-8.4,1.63-11.56,4.88
					c-3.16,3.25-4.74,7.73-4.74,13.43c0,5.7,1.58,10.22,4.74,13.56c3.16,3.34,7.01,5.01,11.56,5.01c4.54,0,8.39-1.65,11.56-4.94
					c3.16-3.29,4.74-7.79,4.74-13.49C2869.92,66.35,2868.34,61.85,2865.18,58.56z"/>
			</g>
			<g>
				<path class="st0" d="M2909.13,51.74c2.89-5.79,6.83-10.24,11.82-13.36c4.99-3.12,10.55-4.68,16.7-4.68
					c5.25,0,9.86,1.07,13.83,3.21c3.96,2.14,7.01,4.94,9.15,8.42v-0.67c0-5.46,4.43-9.89,9.89-9.89h3.07c5.46,0,9.89,4.43,9.89,9.89
					v64.66h-22.85V98.77c-2.23,3.47-5.32,6.28-9.29,8.42c-3.96,2.14-8.57,3.21-13.83,3.21c-6.06,0-11.58-1.58-16.57-4.74
					c-4.99-3.16-8.93-7.66-11.82-13.49c-2.9-5.83-4.34-12.58-4.34-20.24C2904.79,64.26,2906.23,57.53,2909.13,51.74z M2955.89,58.56
					c-3.16-3.29-7.01-4.94-11.56-4.94c-4.54,0-8.4,1.63-11.56,4.88c-3.16,3.25-4.74,7.73-4.74,13.43c0,5.7,1.58,10.22,4.74,13.56
					c3.16,3.34,7.01,5.01,11.56,5.01c4.54,0,8.39-1.65,11.56-4.94c3.16-3.29,4.74-7.79,4.74-13.49
					C2960.63,66.35,2959.05,61.85,2955.89,58.56z"/>
			</g>
			<g>
				<path class="st0" d="M3066.38,42.46c5.21,5.66,7.82,13.43,7.82,23.31v43.55h-22.71V68.85c0-4.99-1.29-8.86-3.87-11.62
					c-2.58-2.76-6.06-4.14-10.42-4.14c-4.36,0-7.84,1.38-10.42,4.14c-2.58,2.76-3.87,6.64-3.87,11.62v40.48h-22.85V44.66
					c0-5.46,4.43-9.89,9.89-9.89h3.07c5.46,0,9.89,4.43,9.89,9.89v0c2.32-3.29,5.43-5.9,9.35-7.82c3.92-1.91,8.33-2.87,13.23-2.87
					C3054.2,33.97,3061.17,36.8,3066.38,42.46z"/>
			</g>
			<g>
				<path class="st0" d="M3089.89,51.74c2.89-5.79,6.83-10.24,11.82-13.36c4.99-3.12,10.56-4.68,16.7-4.68
					c5.25,0,9.86,1.07,13.83,3.21c3.96,2.14,7.01,4.94,9.15,8.42v0c0-5.83,4.73-10.56,10.55-10.56h1.74
					c5.83,0,10.55,4.73,10.55,10.56v64h-22.85V98.77c-2.23,3.47-5.32,6.28-9.29,8.42c-3.96,2.14-8.57,3.21-13.83,3.21
					c-6.06,0-11.58-1.58-16.57-4.74c-4.99-3.16-8.93-7.66-11.82-13.49c-2.9-5.83-4.34-12.58-4.34-20.24
					C3085.55,64.26,3087,57.53,3089.89,51.74z M3136.66,58.56c-3.16-3.29-7.01-4.94-11.56-4.94c-4.54,0-8.4,1.63-11.56,4.88
					c-3.16,3.25-4.74,7.73-4.74,13.43c0,5.7,1.58,10.22,4.74,13.56c3.16,3.34,7.01,5.01,11.56,5.01c4.54,0,8.39-1.65,11.56-4.94
					c3.16-3.29,4.74-7.79,4.74-13.49C3141.4,66.35,3139.82,61.85,3136.66,58.56z"/>
			</g>
		</g>
		<g>
			<g>
				<path class="st1" d="M1378.02,254.13c-14.13,8.41-26.14,19.83-36.06,34.25l0-1.79c-0.01-23.66-19.19-42.83-42.84-42.83h-1.11
					c-24.62,0-44.39,19.78-44.39,44.18c0.01,72.44,0.01,208.52,0.01,208.67c0,0,0,0,0,0h88.33c0,0,0,0,0,0V386.19
					c0-18.63,4.66-31.7,13.97-39.21c9.31-7.51,23.58-11.27,42.81-11.27l0,0c13.69,0,24.79-11.1,24.79-24.79v-30.76
					c0-23.14-25.15-38.01-45.1-26.27C1378.3,253.96,1378.16,254.05,1378.02,254.13z"/>
			</g>
			<g>
				<path class="st1" d="M1675.93,243.76h-18.03c-19.41,0-35.15,15.74-35.15,35.15v0c-6.92-11.72-16.68-21.02-29.29-27.94
					c-12.62-6.91-27.65-10.37-45.07-10.37c-20.13,0-38.39,5.26-54.76,15.78c-16.38,10.52-29.29,25.54-38.76,45.07
					c-9.46,19.53-14.19,42.36-14.19,68.51c0,26.14,4.73,49.06,14.19,68.73c9.47,19.68,22.38,34.78,38.76,45.29
					c16.37,10.52,34.63,15.78,54.76,15.78c17.13,0,32.07-3.45,44.85-10.37c12.77-6.91,22.6-16.23,29.52-27.94v35.16h88.34
					c0,0,0,0,0,0V278.92C1711.09,259.5,1695.35,243.76,1675.93,243.76z M1609.45,408.72c-8.87,9.32-19.76,13.97-32.68,13.97
					c-13.23,0-24.19-4.74-32.9-14.2c-8.72-9.46-13.07-22.31-13.07-38.53c0-16.53,4.35-29.37,13.07-38.54
					c8.71-9.16,19.68-13.74,32.9-13.74c12.91,0,23.81,4.66,32.68,13.97c8.86,9.32,13.29,22.08,13.29,38.31
					C1622.75,386.49,1618.31,399.41,1609.45,408.72z"/>
			</g>
			<g>
				<path class="st1" d="M1918.68,241.51c-17.13,0-32.3,3.53-45.52,10.59c-13.22,7.06-23.74,16.31-31.55,27.72v0
					c0-19.91-16.14-36.06-36.06-36.06h-16.22c-19.91,0-36.06,16.14-36.06,36.06v216.79h88.34V360.95c0-14.42,3.76-25.76,11.27-34.03
					c7.51-8.26,17.88-12.39,31.1-12.39c12.62,0,22.68,4.13,30.19,12.39c7.51,8.27,11.27,19.61,11.27,34.03v135.66h88.34V349.23
					c0-33.05-8.56-59.26-25.69-78.64C1970.96,251.2,1947.82,241.51,1918.68,241.51z"/>
			</g>
			<g>
				<path class="st1" d="M2294.69,178.86H2108.1c-19.42,0-35.16,15.74-35.16,35.16v0c0,19.42,15.74,35.16,35.16,35.16h48.68v0
					v247.43h0.9h87.44h0.9V249.18v0h48.68c19.42,0,35.16-15.74,35.16-35.16v0C2329.84,194.6,2314.1,178.86,2294.69,178.86z"/>
			</g>
			<g>
				<path class="st1" d="M2407.73,243.76L2407.73,243.76c-24.39,0-44.17,19.78-44.17,44.17v208.68h88.34V287.93
					C2451.9,263.54,2432.13,243.76,2407.73,243.76z"/>
			</g>
			<g>
				<path class="st1" d="M2629.19,421.34c-7.51,0-12.84-1.5-16-4.51c-3.16-3-4.73-7.96-4.73-14.87v-84.73h24.26
					c11.99,0,21.71-9.72,21.71-21.71v-30.04c0-11.99-9.72-21.71-21.71-21.71h-24.26v-16.9c0-24.52-19.88-44.39-44.39-44.39l0,0
					c-24.52,0-44.39,19.88-44.39,44.39v16.9h-9.39c-11.99,0-21.71,9.72-21.71,21.71v30.04c0,11.99,9.72,21.71,21.71,21.71h9.39
					v83.38c0,64,32.3,96,96.9,96h38.31v-55.73c0-10.79-8.75-19.54-19.54-19.54H2629.19z"/>
			</g>
			<g>
				<path class="st1" d="M2911.48,243.76h-12.84c-13.12,0-24.94,6.37-33.94,15.92c-3.22,3.41-8.83,4.3-12.94,0.78
					c-4.15-3.55-8.75-6.71-13.82-9.49c-12.62-6.91-27.65-10.37-45.07-10.37c-20.13,0-38.39,5.26-54.76,15.78
					c-16.38,10.52-29.29,25.54-38.76,45.07c-9.46,19.53-14.19,42.36-14.19,68.51c0,26.14,4.73,49.06,14.19,68.73
					c9.47,19.68,22.38,34.78,38.76,45.29c16.37,10.52,34.63,15.78,54.76,15.78c17.13,0,32.07-3.45,44.85-10.37
					c12.76-6.91,22.6-16.23,29.52-27.95v35.16v0h88.34V287.86C2955.58,263.51,2935.84,243.76,2911.48,243.76z M2853.95,408.72
					c-8.87,9.32-19.76,13.97-32.68,13.97c-13.23,0-24.19-4.74-32.91-14.2c-8.72-9.46-13.07-22.31-13.07-38.53
					c0-16.53,4.35-29.37,13.07-38.54c8.71-9.16,19.68-13.74,32.91-13.74c12.91,0,23.81,4.66,32.68,13.97
					c8.86,9.32,13.29,22.08,13.29,38.31C2867.24,386.49,2862.81,399.41,2853.95,408.72z"/>
			</g>
			<g>
				<path class="st1" d="M2848.99,214.53l62.81-24.62c11.45-4.49,18.98-15.53,18.98-27.83v0c0-21.71-22.42-36.18-42.21-27.24
					l-57.16,25.84c-8.1,3.66-13.31,11.73-13.31,20.62v12.17C2818.1,209.41,2834.15,220.35,2848.99,214.53z"/>
			</g>
			<g>
				<path class="st1" d="M3225.96,270.58c-17.13-19.38-40.27-29.07-69.41-29.07c-17.12,0-32.3,3.53-45.52,10.59
					c-13.22,7.06-23.73,16.3-31.55,27.72v0c0-19.91-16.14-36.05-36.05-36.05h-16.23c-19.91,0-36.05,16.14-36.05,36.05v216.79h88.34
					V360.95c0-14.42,3.76-25.76,11.27-34.03c7.51-8.26,17.88-12.39,31.1-12.39c12.62,0,22.68,4.13,30.19,12.39
					c7.51,8.27,11.27,19.61,11.27,34.03v135.66h88.34V349.23C3251.64,316.18,3243.08,289.96,3225.96,270.58z"/>
			</g>
			<g>
				<g>
					<g>
						<path class="st1" d="M1169.45,496.59c-22.04,0-39.9-17.86-39.9-39.9V321.9H992.87c-22.04,0-39.9-17.86-39.9-39.9
							s17.86-39.9,39.9-39.9h176.25c22.18,0,40.23,18.05,40.23,40.23v174.36C1209.35,478.72,1191.49,496.59,1169.45,496.59z
							 M1169.12,321.9L1169.12,321.9L1169.12,321.9z"/>
					</g>
				</g>
				<g>
					<g>
						<path class="st1" d="M1143.99,403.25c-1.43,1.36-35.35,29.07-35.47,29.47c-37.26,25.68-79.48,45.79-125.28,50.11
							c-54.79,4.07-111.52-11.38-154.87-45.55c-47.42-36.59-76.6-93.69-82.47-152.61c-1.78-16.2-1.94-32.69,0.42-48.82
							c12.82-86.82,81.37-162.31,164.4-187.58c31.76-9.34,66.89-11.88,98.58-1.73c-20.2-3.63-40.52-2.2-60.17,2.47
							c-85.2,20.1-155.73,103.1-157.49,190.52c0.27,41.54,18.57,85.48,46.63,114.19c34.1,35.56,83.87,49.37,131.1,39.78
							c27.06-6.4,52.96-24.34,73.86-43.5c0,0-3.32,2.85-3.32,2.85l28.75-30.26c21.03-22.13,56.02-23.03,78.15-2
							C1170.81,343.07,1169.41,382.46,1143.99,403.25L1143.99,403.25z"/>
					</g>
				</g>
				<g>
					<g>
						<path class="st1" d="M839.93,298.98c-13.62-32.44-14.12-69.77-4.34-103.41c24.74-82.99,108.83-135.52,194.26-122
							c25.28,4.04,49.73,13.71,70.54,28.67c16.22,11.6,30.3,26.23,40.6,43.15c-13.23-10.59-26.75-19.84-41.83-27.2
							c-47.27-23.7-104.49-26.04-152.95-4.54c-39.73,17.39-71.96,49.97-89.82,89.55C842.9,233.1,837.88,266.2,839.93,298.98
							L839.93,298.98z"/>
					</g>
				</g>
			</g>
			<g>
				<circle class="st1" cx="2407.73" cy="186.42" r="45.98"/>
			</g>
		</g>
		<g>
			<g>
				<path class="st0" d="M996.39,663.23l-19.64-35.64h-5.51v35.64h-23v-86.27c0-4.5,3.65-8.15,8.15-8.15h30.45
					c7.44,0,13.79,1.3,19.03,3.9c5.25,2.6,9.17,6.17,11.77,10.69c2.6,4.53,3.9,9.57,3.9,15.13c0,6.28-1.77,11.88-5.31,16.81
					c-3.54,4.93-8.77,8.43-15.67,10.49l21.79,37.39H996.39z M971.23,611.31h14.26c4.21,0,7.37-1.03,9.48-3.09
					c2.11-2.06,3.16-4.98,3.16-8.74c0-3.59-1.05-6.41-3.16-8.47c-2.11-2.06-5.27-3.09-9.48-3.09h-14.26V611.31z"/>
				<path class="st0" d="M1106.28,631.21h-52.05c0.36,4.66,1.86,8.23,4.51,10.69c2.64,2.47,5.89,3.7,9.75,3.7
					c4.43,0,7.82-1.44,10.17-4.33c1.52-1.87,3.83-2.93,6.24-2.93h6.7c6.79,0,10.96,7.95,6.65,13.2c-0.03,0.04-0.07,0.08-0.1,0.12
					c-3.28,3.95-7.38,7.04-12.31,9.28c-4.93,2.24-10.45,3.36-16.54,3.36c-7.35,0-13.9-1.57-19.64-4.71
					c-5.74-3.14-10.22-7.62-13.45-13.45c-3.23-5.83-4.84-12.64-4.84-20.45c0-7.8,1.59-14.62,4.77-20.45
					c3.18-5.83,7.64-10.31,13.38-13.45c5.74-3.14,12.33-4.71,19.77-4.71c7.26,0,13.72,1.53,19.37,4.57
					c5.65,3.05,10.06,7.4,13.25,13.05c3.18,5.65,4.77,12.24,4.77,19.77C1106.68,626.64,1106.55,628.88,1106.28,631.21z
					 M1083.14,618.44c0-3.95-1.34-7.08-4.04-9.42c-2.69-2.33-6.05-3.5-10.09-3.5c-3.86,0-7.11,1.12-9.75,3.36
					c-2.65,2.24-4.28,5.43-4.91,9.55H1083.14z"/>
				<path class="st0" d="M1118.99,605.25c3.18-5.83,7.62-10.31,13.32-13.45c5.69-3.14,12.22-4.71,19.57-4.71
					c9.42,0,17.28,2.47,23.61,7.4c1.28,1,2.48,2.08,3.58,3.25c6.26,6.61,1.14,17.6-7.97,17.6h-2.18c-3.12,0-5.8-1.75-7.71-4.22
					c-2.26-2.93-5.5-4.39-9.73-4.39c-4.22,0-7.58,1.64-10.09,4.91c-2.51,3.27-3.77,7.96-3.77,14.06c0,6.1,1.26,10.78,3.77,14.06
					c2.51,3.28,5.87,4.91,10.09,4.91c4.23,0,7.47-1.46,9.73-4.39c1.91-2.47,4.59-4.22,7.71-4.22h1.99c9.11,0,14.26,11.03,7.95,17.6
					c-1.06,1.11-2.21,2.15-3.44,3.11c-6.37,5.02-14.21,7.53-23.54,7.53c-7.35,0-13.88-1.57-19.57-4.71
					c-5.7-3.14-10.13-7.62-13.32-13.45c-3.18-5.83-4.77-12.64-4.77-20.45C1114.21,617.9,1115.8,611.08,1118.99,605.25z"/>
				<path class="st0" d="M1214.49,659.59c-5.87-3.14-10.49-7.62-13.85-13.45c-3.36-5.83-5.04-12.64-5.04-20.45
					c0-7.71,1.7-14.5,5.11-20.38c3.41-5.87,8.07-10.38,13.99-13.52c5.92-3.14,12.55-4.71,19.91-4.71c7.35,0,13.99,1.57,19.91,4.71
					c5.92,3.14,10.58,7.64,13.99,13.52c3.41,5.87,5.11,12.67,5.11,20.38c0,7.71-1.73,14.51-5.18,20.38
					c-3.45,5.87-8.16,10.38-14.12,13.52c-5.96,3.14-12.62,4.71-19.98,4.71C1226.97,664.3,1220.36,662.73,1214.49,659.59z
					 M1245.56,639.55c3.09-3.23,4.64-7.85,4.64-13.85c0-6.01-1.5-10.63-4.51-13.85c-3.01-3.23-6.7-4.84-11.1-4.84
					c-4.49,0-8.2,1.59-11.16,4.78c-2.96,3.18-4.44,7.82-4.44,13.92c0,6.01,1.46,10.63,4.37,13.85c2.91,3.23,6.57,4.84,10.96,4.84
					C1238.72,644.39,1242.47,642.78,1245.56,639.55z"/>
				<g>
					<path class="st0" d="M1403.87,595.84c5.51,5.65,8.27,13.5,8.27,23.54v43.85h-22.87v-40.76c0-4.84-1.28-8.59-3.83-11.23
						c-2.56-2.64-6.08-3.97-10.56-3.97c-4.49,0-8,1.32-10.56,3.97c-2.56,2.65-3.83,6.39-3.83,11.23v40.76h-22.87v-40.76
						c0-4.84-1.28-8.59-3.83-11.23c-2.56-2.64-6.08-3.97-10.56-3.97c-4.48,0-8,1.32-10.56,3.97c-2.56,2.65-3.83,6.39-3.83,11.23
						v40.76h-23V602.1h23v-4.51c2.33-3.14,5.38-5.63,9.15-7.47c3.77-1.84,8.02-2.76,12.78-2.76c5.65,0,10.69,1.21,15.13,3.63
						c4.44,2.42,7.91,5.87,10.42,10.36c2.6-4.12,6.14-7.49,10.63-10.09c4.48-2.6,9.37-3.9,14.66-3.9
						C1390.94,587.36,1398.36,590.19,1403.87,595.84z"/>
					<path class="st0" d="M1308.84,622.47v40.76h-23v-65.1c0-5.5,4.46-9.95,9.95-9.95h3.09c5.5,0,9.95,4.46,9.95,9.95l0,0V622.47z"
						/>
				</g>
				<path class="st0" d="M1498.63,631.21h-52.05c0.36,4.66,1.86,8.23,4.51,10.69c2.64,2.47,5.89,3.7,9.75,3.7
					c4.43,0,7.82-1.44,10.17-4.33c1.52-1.87,3.83-2.93,6.24-2.93h6.7c6.79,0,10.96,7.95,6.65,13.2c-0.03,0.04-0.07,0.08-0.1,0.12
					c-3.28,3.95-7.38,7.04-12.31,9.28c-4.93,2.24-10.45,3.36-16.54,3.36c-7.35,0-13.9-1.57-19.64-4.71
					c-5.74-3.14-10.22-7.62-13.45-13.45c-3.23-5.83-4.84-12.64-4.84-20.45c0-7.8,1.59-14.62,4.77-20.45
					c3.18-5.83,7.64-10.31,13.38-13.45c5.74-3.14,12.33-4.71,19.77-4.71c7.26,0,13.72,1.53,19.37,4.57
					c5.65,3.05,10.06,7.4,13.25,13.05c3.18,5.65,4.77,12.24,4.77,19.77C1499.04,626.64,1498.9,628.88,1498.63,631.21z
					 M1475.5,618.44c0-3.95-1.34-7.08-4.04-9.42c-2.69-2.33-6.05-3.5-10.09-3.5c-3.86,0-7.11,1.12-9.75,3.36
					c-2.65,2.24-4.28,5.43-4.91,9.55H1475.5z"/>
				<path class="st0" d="M1577.93,595.91c5.25,5.7,7.87,13.52,7.87,23.47v43.85h-22.87v-40.76c0-5.02-1.3-8.92-3.9-11.7
					c-2.6-2.78-6.1-4.17-10.49-4.17c-4.39,0-7.89,1.39-10.49,4.17c-2.6,2.78-3.9,6.68-3.9,11.7v40.76h-23v-65.1
					c0-5.5,4.46-9.95,9.95-9.95h3.09c5.5,0,9.95,4.46,9.95,9.95l0,0c2.33-3.32,5.47-5.94,9.42-7.87c3.95-1.93,8.38-2.89,13.32-2.89
					C1565.66,587.36,1572.68,590.21,1577.93,595.91z"/>
				<path class="st0" d="M1601.6,605.25c2.91-5.83,6.88-10.31,11.9-13.45c5.02-3.14,10.63-4.71,16.81-4.71
					c4.93,0,9.44,1.03,13.52,3.09c4.08,2.06,7.28,4.84,9.62,8.34v-23.34c0-6.35,5.15-11.5,11.5-11.5h0c6.35,0,11.5,5.15,11.5,11.5
					v88.04h-23v-10.76c-2.15,3.59-5.22,6.46-9.21,8.61c-3.99,2.15-8.63,3.23-13.92,3.23c-6.19,0-11.79-1.59-16.81-4.77
					c-5.02-3.18-8.99-7.71-11.9-13.59c-2.92-5.87-4.37-12.66-4.37-20.38C1597.23,617.85,1598.68,611.08,1601.6,605.25z
					 M1648.68,612.11c-3.18-3.32-7.06-4.98-11.64-4.98c-4.57,0-8.45,1.64-11.63,4.91c-3.18,3.27-4.78,7.78-4.78,13.52
					c0,5.74,1.59,10.29,4.78,13.65c3.18,3.36,7.06,5.04,11.63,5.04c4.57,0,8.45-1.66,11.64-4.98c3.18-3.32,4.77-7.85,4.77-13.59
					C1653.45,619.96,1651.86,615.43,1648.68,612.11z"/>
				<path class="st0" d="M1692.93,605.25c2.91-5.83,6.88-10.31,11.9-13.45c5.02-3.14,10.63-4.71,16.81-4.71
					c5.29,0,9.93,1.08,13.92,3.23c3.99,2.15,7.06,4.98,9.21,8.47l0,0c0-5.87,4.76-10.63,10.63-10.63h1.75
					c5.87,0,10.63,4.76,10.63,10.63v64.43h-23V652.6c-2.24,3.5-5.36,6.32-9.35,8.47c-3.99,2.15-8.63,3.23-13.92,3.23
					c-6.1,0-11.66-1.59-16.68-4.77c-5.02-3.18-8.99-7.71-11.9-13.59c-2.91-5.87-4.37-12.66-4.37-20.38
					C1688.56,617.85,1690.01,611.08,1692.93,605.25z M1740,612.11c-3.18-3.32-7.06-4.98-11.63-4.98c-4.57,0-8.45,1.64-11.64,4.91
					c-3.18,3.27-4.77,7.78-4.77,13.52c0,5.74,1.59,10.29,4.77,13.65c3.18,3.36,7.06,5.04,11.64,5.04c4.57,0,8.45-1.66,11.63-4.98
					c3.18-3.32,4.78-7.85,4.78-13.59C1744.78,619.96,1743.19,615.43,1740,612.11z"/>
				<path class="st0" d="M1784.66,605.25c3.18-5.83,7.62-10.31,13.32-13.45c5.69-3.14,12.22-4.71,19.57-4.71
					c9.41,0,17.28,2.47,23.61,7.4c1.28,1,2.47,2.08,3.58,3.25c6.26,6.61,1.14,17.6-7.97,17.6h-2.18c-3.12,0-5.8-1.75-7.71-4.22
					c-2.26-2.93-5.5-4.39-9.73-4.39c-4.22,0-7.58,1.64-10.09,4.91c-2.51,3.27-3.77,7.96-3.77,14.06c0,6.1,1.25,10.78,3.77,14.06
					c2.51,3.28,5.87,4.91,10.09,4.91c4.23,0,7.47-1.46,9.73-4.39c1.91-2.47,4.59-4.22,7.71-4.22h1.99c9.11,0,14.26,11.03,7.95,17.6
					c-1.06,1.11-2.21,2.14-3.44,3.11c-6.37,5.02-14.21,7.53-23.54,7.53c-7.35,0-13.88-1.57-19.57-4.71
					c-5.7-3.14-10.13-7.62-13.32-13.45c-3.18-5.83-4.77-12.64-4.77-20.45C1779.88,617.9,1781.47,611.08,1784.66,605.25z"/>
				<path class="st0" d="M1867.52,576.8c-2.56-2.37-3.83-5.31-3.83-8.81c0-3.59,1.28-6.57,3.83-8.94c2.56-2.38,5.85-3.56,9.89-3.56
					c3.95,0,7.2,1.19,9.75,3.56c2.56,2.38,3.83,5.36,3.83,8.94c0,3.5-1.28,6.44-3.83,8.81c-2.56,2.38-5.81,3.56-9.75,3.56
					C1873.37,580.37,1870.07,579.18,1867.52,576.8z M1888.84,599.67v63.55h-23v-63.55c0-6.35,5.15-11.5,11.5-11.5h0
					C1883.69,588.17,1888.84,593.32,1888.84,599.67z"/>
				<path class="st0" d="M1919.84,659.59c-5.87-3.14-10.49-7.62-13.85-13.45c-3.36-5.83-5.04-12.64-5.04-20.45
					c0-7.71,1.7-14.5,5.11-20.38c3.41-5.87,8.07-10.38,13.99-13.52c5.92-3.14,12.55-4.71,19.91-4.71c7.35,0,13.99,1.57,19.91,4.71
					c5.92,3.14,10.58,7.64,13.99,13.52c3.41,5.87,5.11,12.67,5.11,20.38c0,7.71-1.73,14.51-5.18,20.38
					c-3.45,5.87-8.16,10.38-14.12,13.52c-5.96,3.14-12.62,4.71-19.97,4.71C1932.33,664.3,1925.71,662.73,1919.84,659.59z
					 M1950.91,639.55c3.09-3.23,4.64-7.85,4.64-13.85c0-6.01-1.5-10.63-4.51-13.85c-3.01-3.23-6.7-4.84-11.1-4.84
					c-4.49,0-8.21,1.59-11.16,4.78c-2.96,3.18-4.44,7.82-4.44,13.92c0,6.01,1.46,10.63,4.37,13.85c2.91,3.23,6.57,4.84,10.96,4.84
					C1944.07,644.39,1947.82,642.78,1950.91,639.55z"/>
				<path class="st0" d="M2057.98,595.91c5.25,5.7,7.87,13.52,7.87,23.47v43.85h-22.87v-40.76c0-5.02-1.3-8.92-3.9-11.7
					c-2.6-2.78-6.1-4.17-10.49-4.17c-4.39,0-7.89,1.39-10.49,4.17c-2.6,2.78-3.9,6.68-3.9,11.7v40.76h-23v-65.1
					c0-5.5,4.46-9.95,9.95-9.95h3.09c5.5,0,9.95,4.46,9.95,9.95l0,0c2.33-3.32,5.47-5.94,9.42-7.87c3.95-1.93,8.38-2.89,13.32-2.89
					C2045.71,587.36,2052.73,590.21,2057.98,595.91z"/>
				<path class="st0" d="M2152.2,631.21h-52.05c0.36,4.66,1.86,8.23,4.51,10.69c2.64,2.47,5.9,3.7,9.75,3.7
					c4.43,0,7.82-1.44,10.17-4.33c1.52-1.87,3.83-2.93,6.24-2.93h6.7c6.79,0,10.96,7.95,6.65,13.2c-0.03,0.04-0.07,0.08-0.1,0.12
					c-3.28,3.95-7.38,7.04-12.31,9.28c-4.93,2.24-10.45,3.36-16.54,3.36c-7.35,0-13.9-1.57-19.64-4.71
					c-5.74-3.14-10.22-7.62-13.45-13.45c-3.23-5.83-4.84-12.64-4.84-20.45c0-7.8,1.59-14.62,4.77-20.45
					c3.18-5.83,7.64-10.31,13.38-13.45c5.74-3.14,12.33-4.71,19.77-4.71c7.26,0,13.72,1.53,19.37,4.57
					c5.65,3.05,10.06,7.4,13.25,13.05c3.18,5.65,4.78,12.24,4.78,19.77C2152.6,626.64,2152.47,628.88,2152.2,631.21z
					 M2129.06,618.44c0-3.95-1.35-7.08-4.04-9.42c-2.69-2.33-6.05-3.5-10.09-3.5c-3.86,0-7.11,1.12-9.75,3.36
					c-2.65,2.24-4.28,5.43-4.91,9.55H2129.06z"/>
				<path class="st0" d="M2177.75,660.94c-5.11-2.24-9.15-5.31-12.11-9.21c-0.03-0.04-0.06-0.08-0.09-0.12c-4-5.34,0.35-13,7.03-13
					h4.98c2.75,0,5.58,1.15,6.94,3.53c0.61,1.05,1.45,1.98,2.52,2.79c2.15,1.61,4.8,2.42,7.94,2.42c2.87,0,5.09-0.56,6.66-1.68
					c1.57-1.12,2.35-2.58,2.35-4.37c0-2.15-1.12-3.74-3.36-4.78c-2.24-1.03-5.87-2.17-10.89-3.43c-5.38-1.25-9.87-2.58-13.45-3.97
					c-3.59-1.39-6.68-3.59-9.28-6.59c-2.6-3-3.9-7.06-3.9-12.17c0-4.3,1.19-8.23,3.57-11.77c2.37-3.54,5.87-6.34,10.49-8.41
					c4.62-2.06,10.11-3.09,16.48-3.09c9.42,0,16.83,2.33,22.26,6.99c0.55,0.48,1.08,0.97,1.59,1.47c6.29,6.32,1.93,17.09-6.99,17.09
					l0,0c-3.26,0-6.25-1.63-8.13-4.3c-0.5-0.7-1.1-1.33-1.8-1.89c-1.93-1.52-4.46-2.29-7.6-2.29c-2.69,0-4.75,0.52-6.19,1.55
					c-1.44,1.03-2.15,2.44-2.15,4.24c0,2.15,1.14,3.77,3.43,4.84c2.29,1.08,5.85,2.15,10.69,3.23c5.56,1.44,10.09,2.85,13.59,4.24
					c3.5,1.39,6.57,3.63,9.21,6.73c2.64,3.09,4.01,7.24,4.1,12.44c0,4.39-1.23,8.32-3.7,11.77c-2.47,3.45-6.01,6.17-10.63,8.14
					c-4.62,1.97-9.98,2.96-16.07,2.96C2188.69,664.3,2182.87,663.18,2177.75,660.94z"/>
			</g>
			<g>
				<g>
					<path class="st0" d="M2384.99,554.77c-13.66,22.06-31.83,75.2-33.34,91.11c-0.25,2.51,0.75,4.01,2.26,4.01
						c5.64,0,16.92-15.04,28.07-31.96c0.88-1.38,1.63-2.76,3.13-2.76c1.88,0,3.13,1.25,1.25,5.39c-4.01,9.4-23.94,41.11-37.72,43.87
						c-6.77,1.25-16.04-6.14-14.91-18.3c0.75-7.14,3.26-17.55,6.77-28.83c-11.28,16.29-33.21,46.5-46.62,46.5
						c-8.02,0-16.04-8.02-15.16-18.17c1.13-10.9,9.27-26.19,16.79-36.85c8.9-12.41,28.57-31.83,44.49-31.83
						c6.39,0,10.15,2.76,12.28,5.89c5.26-14.41,8.52-21.93,10.65-26.82c2.51-5.76,7.77-19.93,13.66-19.93
						c3.89,0,14.04,3.88,13.53,9.52C2389.88,548.63,2387.99,549.63,2384.99,554.77z M2345.76,597.63c0-2.88-0.88-6.02-3.01-6.02
						c-8.02,0-22.94,15.29-31.33,27.7c-6.39,9.02-12.78,21.31-13.28,26.82c-0.12,1.63-0.25,3.63,2.38,3.63
						c4.51,0,18.42-15.29,29.33-29.45C2335.11,613.68,2341.12,604.65,2345.76,597.63z"/>
					<path class="st0" d="M2400.77,624.96c-4.51,7.64-7.52,15.92-7.9,23.94c-0.13,4.51,2.38,6.27,5.89,6.27
						c14.04,0,35.97-19.3,50.26-34.84c2.51-2.76,4.51-5.51,7.02-5.51c2.76,0,1.88,2.88-0.25,6.64c-5.14,9.4-38.98,44.99-60.16,44.99
						c-9.65,0-23.31-8.52-22.18-22.31c2.01-20.43,14.79-39.6,29.58-55.14c6.64-7.02,17.04-14.16,25.32-13.16
						c7.77,1,19.68,8.15,18.8,17.17c-1.13,13.53-26.57,34.84-38.1,34.84C2406.66,627.84,2402.65,626.96,2400.77,624.96z
						 M2403.4,620.57c3.01,0.38,4.51-0.25,5.64-0.63c8.4-2.88,23.69-15.67,24.44-24.06c0.38-3.89-2.76-3.51-3.51-3.51
						c-4.51,0-12.03,9.02-15.29,12.91C2410.92,609.92,2406.91,615.06,2403.4,620.57z"/>
					<path class="st0" d="M2604.67,561.16c-6.27,0-3.89-9.78-18.05-9.78c-5.01,0-11.15,3.01-15.92,5.89
						c-22.18,13.66-54.9,55.77-56.27,88.61c-0.38,11.53,5.39,19.3,16.79,19.3c23.31,0,52.14-23.19,78.08-48.63
						c0.63-0.88,1.5-1.13,2.26-1c2.38,0.25,1.13,4.01,0.12,5.14c-15.92,19.68-52.51,57.78-87.73,57.78
						c-15.92,0-32.71-12.66-31.71-34.97c1.88-41.23,52.01-107.91,90.36-107.91c15.04,0.13,24.69,12.53,24.31,21.93
						C2606.93,560.04,2606.05,561.16,2604.67,561.16z"/>
					<path class="st0" d="M2658.81,582.85c8.77,1.25,14.04,9.15,13.16,19.3c-2.51,26.44-37.47,63.54-57.65,63.54
						c-11.15,0-19.68-10.9-18.67-23.06c1.13-12.78,8.4-26.95,17.92-39.6c5.76-7.9,20.93-24.94,34.09-25.32
						C2650.66,577.71,2655.55,579.59,2658.81,582.85z M2654.92,591.62c-18.67,7.9-37.6,37.6-39.1,53.77
						c-0.38,3.13,0.37,8.77,5.89,8.77c11.4,0,38.98-31.46,40.86-52.14C2663.2,596.13,2659.56,592.12,2654.92,591.62z"/>
					<path class="st0" d="M2687.25,582.09c1.13-3.63,4.26-4.64,7.52-4.64c4.14,0.12,12.66,5.14,12.16,11.78
						c-0.5,5.14-6.52,17.3-12.66,29.08c3.01-3.89,6.27-8.02,9.9-11.78c6.89-7.64,25.32-28.32,34.21-28.07
						c7.77,0.25,13.16,8.9,12.16,15.92c-0.75,5.64-7.65,15.41-11.53,24.94c-4.64,10.53-8.9,21.31-9.78,27.57
						c-0.25,2.38,0.88,3.51,2.38,3.51c5.51,0.25,19.3-19.55,27.07-32.71c1.13-2.01,2.51-2.63,3.38-2.63c2.01,0,3.01,2.88,1.25,6.02
						c-7.14,14.54-27.2,43.49-38.48,43.49c-9.02,0-13.91-8.52-12.91-18.05c2.01-23.44,17.8-51.26,16.04-51.26
						c-6.77-0.25-30.83,27.82-39.6,43.61c-2.38,4.26-7.14,12.41-11.28,20.68c-2.63,5.14-5.64,5.77-7.9,5.77
						c-4.76-0.25-8.9-7.64-8.52-12.66c0.63-6.64,9.9-24.94,16.79-40.98C2681.36,602.4,2684.25,592.62,2687.25,582.09z"/>
					<path class="st0" d="M2829.24,550.39c-0.88,0.13-1.75-0.38-2.76-1c-2.76-2.01-2.51-1.13-4.76-1.25
						c-4.89,0-9.15,2.26-14.79,10.53c-6.27,9.27-13.91,23.06-21.31,38.85c11.28-0.12,23.56-1.76,32.34-3.89
						c3.26-0.75,6.02-0.88,5.89,0.75c-0.25,2.51-4.01,4.51-6.89,5.89c-9.52,4.51-24.94,10.15-38.1,12.28
						c-14.66,34.34-27.82,73.19-31.08,91.49c-0.75,3.51-0.5,9.65-4.39,9.65c-3.01,0-3.76-9.9-3.51-14.16
						c0.25-1.38,0.38-2.76,0.5-4.26c1.76-20.55,7.27-51.39,19.18-84.35c-0.75-0.75-1.38-1.63-1.88-2.51
						c-0.63-1.25-0.75-2.63-0.63-4.14c0.25-2.88,1.88-6.02,4.51-7.4c1.13-0.63,2.38-1,3.76-1.13c14.29-34.21,30.2-60.28,49.5-60.66
						c10.4-0.12,15.79,7.9,16.67,11.41C2832,549.01,2830.62,550.26,2829.24,550.39z"/>
					<path class="st0" d="M2831.99,583.22c4.64,0.12,11.91,4.14,11.28,11.28c-0.38,4.51-7.65,12.41-10.4,17.92
						c-5.14,10.9-10.78,24.82-11.66,33.84c-0.38,4.01,0,6.27,1.25,6.27c7.39,0,26.07-21.81,33.96-34.72
						c0.88-1.63,1.63-2.76,3.13-2.76c1.63,0,2.26,1.88,1.13,4.76c-4.64,13.41-32.71,46-44.24,46c-10.4,0-14.04-10.03-12.78-22.06
						c1.25-14.29,8.4-32.08,13.41-43.49C2819.46,595.13,2824.48,583.22,2831.99,583.22z M2841.52,574.82
						c-4.76,0-9.15-2.63-8.65-8.52c0.5-6.39,6.39-19.8,15.29-19.8c5.14,0,10.4,3.38,9.78,9.02
						C2857.44,561.54,2849.42,574.82,2841.52,574.82z"/>
					<path class="st0" d="M2920.35,589.36c1.88,0.37,5.26,2,7.9,4.01c2.13,1.63,3.63,3.26,3.26,6.39
						c-0.38,5.14-4.76,10.65-6.89,14.92c-6.27,13.03-16.54,40.86-12.66,40.86c5.64,0,19.68-14.66,32.71-37.1
						c1.25-2.13,3.38-3.38,4.89-3.38c1.5,0,2.38,1.5,1,4.76c-5.39,12.66-29.95,45.75-39.98,48.13c-8.65,2.01-15.67-6.14-15.67-14.66
						c0-1.88,0.13-3.76,0.25-5.51c0.63-7.77,3.38-17.3,5.89-24.56c-7.65,11.4-29.95,40.36-43.36,40.36
						c-8.65,0-12.91-10.15-12.16-18.8c2.38-24.82,35.09-67.68,58.4-67.68c5.14,0,14.16,6.02,16.04,11.4L2920.35,589.36z
						 M2908.32,596.76c0.25-1.63-0.38-2.88-2.51-2.88c-16.42,0-42.11,41.36-42.61,54.39c0.13,1.13,0.5,1.76,1.38,1.76
						c6.14,0,25.19-24.31,33.71-34.84C2901.55,611.05,2907.94,601.02,2908.32,596.76z"/>
					<path class="st0" d="M2957.69,582.09c1.13-3.63,4.26-4.64,7.52-4.64c4.14,0.12,12.66,5.14,12.16,11.78
						c-0.5,5.14-6.52,17.3-12.66,29.08c3.01-3.89,6.27-8.02,9.9-11.78c6.89-7.64,25.32-28.32,34.22-28.07
						c7.77,0.25,13.16,8.9,12.16,15.92c-0.75,5.64-7.65,15.41-11.53,24.94c-4.64,10.53-8.9,21.31-9.78,27.57
						c-0.25,2.38,0.88,3.51,2.38,3.51c5.51,0.25,19.3-19.55,27.07-32.71c1.13-2.01,2.51-2.63,3.38-2.63c2.01,0,3.01,2.88,1.25,6.02
						c-7.14,14.54-27.2,43.49-38.48,43.49c-9.02,0-13.91-8.52-12.91-18.05c2.01-23.44,17.8-51.26,16.04-51.26
						c-6.77-0.25-30.83,27.82-39.6,43.61c-2.38,4.26-7.14,12.41-11.28,20.68c-2.63,5.14-5.64,5.77-7.9,5.77
						c-4.76-0.25-8.9-7.64-8.52-12.66c0.63-6.64,9.9-24.94,16.79-40.98C2951.8,602.4,2954.68,592.62,2957.69,582.09z"/>
					<path class="st0" d="M3055.44,599.64c-2.38,1.5-6.02,3.76-9.65,3.76c-3.88,0-10.4-7.77-9.9-12.03c0.25-2,0.75-4.26,2.76-6.27
						c4.26-4.64,21.68-10.03,34.47-10.03c6.14,0,11.53,0.88,14.66,3.38c3.01,2.51,5.64,10.28,5.26,14.66
						c-0.12,0.75-0.25,1.38-0.38,2.01c-7.65,19.18-44.74,40.73-59.03,51.64c13.79-0.75,43.24-3.76,52.89-6.64
						c3.89-1.13,5.64-0.25,5.51,1.75c-0.12,1.13-0.88,2.63-2.76,3.64c-9.28,5.14-51.26,21.43-70.06,21.56
						c-4.26,0-5.39-5.01-4.64-8.52c0.63-2.38,2.51-8.52,5.14-11.15c5.26-5.51,13.16-10.65,17.17-13.66
						c14.91-10.9,37.1-29.2,40.73-39.85C3076.24,593.25,3062.71,594.63,3055.44,599.64z"/>
					<path class="st0" d="M3158.7,589.36c1.88,0.37,5.26,2,7.9,4.01c2.13,1.63,3.63,3.26,3.26,6.39
						c-0.38,5.14-4.76,10.65-6.89,14.92c-6.27,13.03-16.54,40.86-12.66,40.86c5.64,0,19.68-14.66,32.71-37.1
						c1.25-2.13,3.38-3.38,4.89-3.38c1.5,0,2.38,1.5,1,4.76c-5.39,12.66-29.95,45.75-39.98,48.13c-8.65,2.01-15.67-6.14-15.67-14.66
						c0-1.88,0.13-3.76,0.25-5.51c0.63-7.77,3.38-17.3,5.89-24.56c-7.64,11.4-29.95,40.36-43.36,40.36
						c-8.65,0-12.91-10.15-12.16-18.8c2.38-24.82,35.09-67.68,58.4-67.68c5.14,0,14.16,6.02,16.04,11.4L3158.7,589.36z
						 M3146.67,596.76c0.25-1.63-0.38-2.88-2.51-2.88c-16.42,0-42.11,41.36-42.61,54.39c0.13,1.13,0.5,1.76,1.38,1.76
						c6.14,0,25.19-24.31,33.71-34.84C3139.91,611.05,3146.3,601.02,3146.67,596.76z"/>
				</g>
				<g>
					<g>
						<path class="st0" d="M3201.43,574.36c-1.19,0.03-2.17,0.26-3.1,0.73c-0.51,0.27-0.99,0.58-1.39,0.97
							c-0.43,0.41-0.84,0.9-1.15,1.42c-0.97,1.58-1.23,3.3-0.81,5.1c0.21,0.88,0.63,1.67,1.18,2.39c0.55,0.72,1.23,1.27,2.01,1.68
							c0.47,0.26,0.97,0.46,1.48,0.61c0.96,0.27,1.94,0.3,2.91,0.11c1-0.2,1.91-0.59,2.71-1.23c0.85-0.66,1.54-1.47,1.99-2.44
							c0.51-1.13,0.73-2.32,0.57-3.57c-0.11-0.79-0.35-1.54-0.72-2.23c-0.31-0.6-0.73-1.13-1.2-1.62c-0.97-0.96-2.15-1.53-3.48-1.8
							C3202.06,574.39,3201.66,574.39,3201.43,574.36"/>
					</g>
					<g>
						<path class="st0" d="M3197.69,598.81c2.08,0,4.14,0.02,6.22,0c2.22-0.03,4.44-0.07,6.67-0.12c0.86-0.02,1.73-0.04,2.59-0.08
							c0.16-0.01,0.33-0.07,0.45-0.17c1.11-0.85,2.18-1.76,3.09-2.82c0.52-0.62,0.99-1.29,1.47-1.94c0.3-0.39,0.58-0.8,0.82-1.23
							c0.44-0.82,0.87-1.65,1.26-2.51c0.28-0.64,0.49-1.31,0.7-1.98c0.23-0.75,0.44-1.51,0.61-2.27c0.1-0.42,0.13-0.87,0.13-1.3
							c0.02-1.21,0.01-2.42,0.01-3.63c0-0.65-0.06-1.27-0.26-1.88c-0.29-0.95-0.88-1.63-1.83-2c-1-0.39-1.98-0.25-2.9,0.15
							c-0.66,0.29-1.16,0.79-1.43,1.5c-0.17,0.42-0.22,0.86-0.23,1.3c-0.03,1.11-0.01,2.23-0.06,3.35
							c-0.03,0.56-0.16,1.11-0.28,1.66c-0.17,0.85-0.46,1.68-0.86,2.44c-0.38,0.71-0.81,1.38-1.23,2.05
							c-0.49,0.74-1.06,1.42-1.71,2.02c-0.54,0.5-1.14,0.95-1.72,1.4c-0.1,0.08-0.18,0.05-0.25-0.05c-0.19-0.29-0.37-0.6-0.6-0.86
							c-0.3-0.34-0.63-0.65-0.97-0.94c-0.38-0.3-0.76-0.62-1.19-0.84c-0.69-0.39-1.43-0.66-2.21-0.84
							c-1.98-0.44-3.88-0.22-5.72,0.65c-0.98,0.46-1.8,1.12-2.55,1.87c-0.26,0.25-0.44,0.56-0.66,0.83
							c-0.22,0.29-0.29,0.29-0.57,0.06c-0.62-0.48-1.2-1-1.73-1.59c-0.75-0.84-1.38-1.76-1.88-2.78c-0.36-0.72-0.65-1.45-0.9-2.21
							c-0.14-0.43-0.25-0.88-0.32-1.33c-0.16-1.05-0.28-2.11-0.41-3.16c-0.15-1.15-0.13-2.31-0.12-3.45
							c0.01-1.21,0.03-2.42,0.04-3.63c0.01-0.78,0.01-1.55-0.01-2.33c-0.01-0.55-0.07-1.1-0.31-1.61c-0.52-1.08-1.35-1.74-2.58-1.89
							c-0.61-0.06-1.21-0.03-1.78,0.19c-1.04,0.4-1.76,1.12-1.99,2.23c-0.1,0.46-0.1,0.95-0.12,1.43c-0.06,1.33-0.09,2.67-0.13,4
							c-0.01,0.31,0,0.62,0,0.92c-0.01,1.58-0.07,3.16-0.02,4.74c0.04,1.06,0.19,2.12,0.38,3.18c0.22,1.29,0.59,2.55,1.09,3.75
							c0.33,0.78,0.64,1.57,1.04,2.32c0.38,0.73,0.85,1.4,1.29,2.1c0.6,0.95,1.32,1.78,2.08,2.6c0.73,0.79,1.55,1.45,2.35,2.15
							c0.52,0.47,1.08,0.58,1.75,0.56c1.39-0.04,2.77-0.01,4.16-0.02H3197.69z"/>
					</g>
				</g>
			</g>
		</g>
		<g>
			<g>
				<path class="st0" d="M1216.86,37.52c4.01-7.26,9.6-12.91,16.77-16.97c7.17-4.05,15.3-6.08,24.38-6.08
					c11.13,0,20.66,2.94,28.59,8.82c2.08,1.54,3.97,3.23,5.69,5.06c6.73,7.19,1.46,18.99-8.39,18.99h-0.04
					c-3.51,0-6.93-1.49-9.1-4.25c-1.5-1.9-3.27-3.47-5.33-4.7c-3.43-2.05-7.33-3.07-11.69-3.07c-7.04,0-12.74,2.45-17.1,7.35
					c-4.37,4.9-6.55,11.45-6.55,19.64c0,8.2,2.18,14.74,6.55,19.64c4.36,4.9,10.06,7.35,17.1,7.35c4.36,0,8.26-1.02,11.69-3.07
					c2.06-1.23,3.83-2.79,5.33-4.7c2.17-2.76,5.59-4.25,9.1-4.25l0,0c9.87,0,15.15,11.83,8.37,19.01c-1.7,1.8-3.58,3.46-5.64,4.98
					c-7.93,5.83-17.46,8.75-28.59,8.75c-9.08,0-17.21-2.02-24.38-6.08c-7.17-4.05-12.76-9.69-16.77-16.9
					c-4.01-7.21-6.01-15.45-6.01-24.72C1210.85,53.04,1212.85,44.78,1216.86,37.52z"/>
			</g>
			<g>
				<path class="st0" d="M1330.75,105.72c-5.83-3.12-10.42-7.57-13.76-13.36c-3.34-5.79-5.01-12.56-5.01-20.31
					c0-7.66,1.69-14.41,5.08-20.24c3.38-5.83,8.02-10.31,13.89-13.43c5.88-3.12,12.47-4.68,19.77-4.68c7.3,0,13.9,1.56,19.77,4.68
					c5.88,3.12,10.51,7.59,13.9,13.43c3.38,5.84,5.08,12.58,5.08,20.24c0,7.66-1.72,14.41-5.14,20.24
					c-3.43,5.83-8.11,10.31-14.03,13.43c-5.92,3.12-12.54,4.68-19.84,4.68C1343.16,110.4,1336.59,108.84,1330.75,105.72z
					 M1361.62,85.81c3.07-3.21,4.61-7.79,4.61-13.76c0-5.97-1.49-10.56-4.48-13.76c-2.99-3.21-6.66-4.81-11.02-4.81
					c-4.45,0-8.15,1.58-11.09,4.74c-2.94,3.16-4.41,7.77-4.41,13.83c0,5.97,1.45,10.56,4.34,13.76c2.89,3.21,6.52,4.81,10.89,4.81
					C1354.82,90.62,1358.54,89.02,1361.62,85.81z"/>
			</g>
			<g>
				<path class="st0" d="M1518.87,42.39c5.48,5.61,8.22,13.41,8.22,23.38v43.55h-22.71V68.85c0-4.81-1.27-8.53-3.81-11.16
					c-2.54-2.63-6.04-3.94-10.49-3.94c-4.45,0-7.95,1.32-10.49,3.94c-2.54,2.63-3.81,6.35-3.81,11.16v40.48h-22.71V68.85
					c0-4.81-1.27-8.53-3.81-11.16c-2.54-2.63-6.04-3.94-10.49-3.94c-4.45,0-7.95,1.32-10.49,3.94c-2.54,2.63-3.81,6.35-3.81,11.16
					v40.48h-22.85v-65.2c0-5.17,4.19-9.35,9.35-9.35h4.14c5.17,0,9.35,4.19,9.35,9.35v0c2.32-3.12,5.34-5.59,9.08-7.41
					c3.74-1.82,7.97-2.74,12.69-2.74c5.61,0,10.62,1.2,15.03,3.61c4.41,2.41,7.86,5.84,10.35,10.29c2.58-4.1,6.1-7.44,10.56-10.02
					c4.45-2.58,9.31-3.87,14.56-3.87C1506.02,33.97,1513.39,36.78,1518.87,42.39z"/>
			</g>
			<g>
				<path class="st0" d="M1616.73,44.66v64.66h-22.85V99.17c-2.32,3.3-5.46,5.95-9.42,7.95c-3.96,2-8.35,3.01-13.16,3.01
					c-5.7,0-10.73-1.27-15.1-3.81c-4.36-2.54-7.75-6.21-10.15-11.02s-3.61-10.47-3.61-16.97V44.66c0-5.46,4.43-9.89,9.89-9.89h2.94
					c5.46,0,9.89,4.43,9.89,9.89v30.6c0,4.99,1.29,8.86,3.87,11.62c2.58,2.76,6.06,4.14,10.42,4.14c4.45,0,7.97-1.38,10.55-4.14
					c2.58-2.76,3.87-6.63,3.87-11.62v-30.6c0-5.46,4.43-9.89,9.89-9.89h3.07C1612.31,34.78,1616.73,39.2,1616.73,44.66z"/>
			</g>
			<g>
				<path class="st0" d="M1699.5,42.46c5.21,5.66,7.82,13.43,7.82,23.31v43.55h-22.71V68.85c0-4.99-1.29-8.86-3.87-11.62
					c-2.58-2.76-6.06-4.14-10.42-4.14c-4.36,0-7.84,1.38-10.42,4.14c-2.58,2.76-3.87,6.64-3.87,11.62v40.48h-22.85V44.66
					c0-5.46,4.43-9.89,9.89-9.89h3.07c5.46,0,9.89,4.43,9.89,9.89v0c2.32-3.29,5.43-5.9,9.35-7.82c3.92-1.91,8.33-2.87,13.23-2.87
					C1687.32,33.97,1694.29,36.8,1699.5,42.46z"/>
			</g>
			<g>
				<path class="st0" d="M1724.88,23.49c-2.54-2.36-3.81-5.28-3.81-8.75c0-3.56,1.27-6.52,3.81-8.89c2.54-2.36,5.81-3.54,9.82-3.54
					c3.92,0,7.15,1.18,9.69,3.54c2.54,2.36,3.81,5.32,3.81,8.89c0,3.47-1.27,6.39-3.81,8.75c-2.54,2.36-5.77,3.54-9.69,3.54
					C1730.69,27.03,1727.42,25.85,1724.88,23.49z M1746.06,46.2v63.13h-22.85V46.2c0-6.31,5.11-11.42,11.42-11.42l0,0
					C1740.95,34.78,1746.06,39.89,1746.06,46.2z"/>
			</g>
			<g>
				<path class="st0" d="M1762.43,51.74c2.89-5.79,6.83-10.24,11.82-13.36c4.99-3.12,10.56-4.68,16.7-4.68
					c4.9,0,9.37,1.02,13.43,3.07c4.05,2.05,7.24,4.81,9.55,8.28V21.88c0-6.31,5.11-11.42,11.42-11.42h0
					c6.31,0,11.42,5.11,11.42,11.42v87.44h-22.85V98.64c-2.14,3.56-5.19,6.41-9.15,8.55c-3.96,2.14-8.57,3.21-13.83,3.21
					c-6.15,0-11.71-1.58-16.7-4.74c-4.99-3.16-8.93-7.66-11.82-13.49c-2.9-5.83-4.34-12.58-4.34-20.24
					C1758.08,64.26,1759.53,57.53,1762.43,51.74z M1809.19,58.56c-3.16-3.29-7.01-4.94-11.56-4.94c-4.54,0-8.4,1.63-11.56,4.88
					c-3.16,3.25-4.74,7.73-4.74,13.43c0,5.7,1.58,10.22,4.74,13.56c3.16,3.34,7.01,5.01,11.56,5.01c4.54,0,8.39-1.65,11.56-4.94
					c3.16-3.29,4.74-7.79,4.74-13.49C1813.93,66.35,1812.35,61.85,1809.19,58.56z"/>
			</g>
			<g>
				<path class="st0" d="M1853.14,51.74c2.89-5.79,6.83-10.24,11.82-13.36c4.99-3.12,10.55-4.68,16.7-4.68
					c5.25,0,9.86,1.07,13.83,3.21c3.96,2.14,7.01,4.94,9.15,8.42v0c0-5.83,4.73-10.56,10.55-10.56h1.74
					c5.83,0,10.56,4.73,10.56,10.56v64h-22.85V98.77c-2.23,3.47-5.32,6.28-9.29,8.42c-3.96,2.14-8.57,3.21-13.83,3.21
					c-6.06,0-11.58-1.58-16.57-4.74c-4.99-3.16-8.93-7.66-11.82-13.49c-2.9-5.83-4.34-12.58-4.34-20.24
					C1848.8,64.26,1850.25,57.53,1853.14,51.74z M1899.9,58.56c-3.16-3.29-7.01-4.94-11.56-4.94c-4.54,0-8.4,1.63-11.56,4.88
					c-3.16,3.25-4.74,7.73-4.74,13.43c0,5.7,1.58,10.22,4.74,13.56c3.16,3.34,7.01,5.01,11.56,5.01c4.54,0,8.39-1.65,11.56-4.94
					c3.16-3.29,4.74-7.79,4.74-13.49C1904.64,66.35,1903.06,61.85,1899.9,58.56z"/>
			</g>
			<g>
				<path class="st0" d="M1943.86,51.74c2.89-5.79,6.83-10.24,11.82-13.36c4.99-3.12,10.56-4.68,16.7-4.68
					c4.9,0,9.37,1.02,13.43,3.07c4.05,2.05,7.24,4.81,9.55,8.28V21.88c0-6.31,5.11-11.42,11.42-11.42h0
					c6.31,0,11.42,5.11,11.42,11.42v87.44h-22.85V98.64c-2.14,3.56-5.19,6.41-9.15,8.55c-3.96,2.14-8.57,3.21-13.83,3.21
					c-6.15,0-11.71-1.58-16.7-4.74c-4.99-3.16-8.93-7.66-11.82-13.49c-2.9-5.83-4.34-12.58-4.34-20.24
					C1939.51,64.26,1940.96,57.53,1943.86,51.74z M1990.62,58.56c-3.16-3.29-7.01-4.94-11.56-4.94c-4.54,0-8.4,1.63-11.56,4.88
					c-3.16,3.25-4.74,7.73-4.74,13.43c0,5.7,1.58,10.22,4.74,13.56c3.16,3.34,7.01,5.01,11.56,5.01c4.54,0,8.39-1.65,11.56-4.94
					c3.16-3.29,4.74-7.79,4.74-13.49C1995.36,66.35,1993.78,61.85,1990.62,58.56z"/>
			</g>
			<g>
				<path class="st0" d="M2085.94,21.88v87.44h-22.85V21.88c0-6.31,5.11-11.42,11.42-11.42l0,0
					C2080.83,10.46,2085.94,15.57,2085.94,21.88z"/>
			</g>
			<g>
				<path class="st0" d="M2116.74,105.72c-5.83-3.12-10.42-7.57-13.76-13.36c-3.34-5.79-5.01-12.56-5.01-20.31
					c0-7.66,1.69-14.41,5.08-20.24c3.38-5.83,8.02-10.31,13.89-13.43c5.88-3.12,12.47-4.68,19.77-4.68c7.3,0,13.9,1.56,19.77,4.68
					c5.88,3.12,10.51,7.59,13.9,13.43c3.38,5.84,5.08,12.58,5.08,20.24c0,7.66-1.72,14.41-5.14,20.24
					c-3.43,5.83-8.11,10.31-14.03,13.43c-5.92,3.12-12.54,4.68-19.84,4.68C2129.14,110.4,2122.57,108.84,2116.74,105.72z
					 M2147.6,85.81c3.07-3.21,4.61-7.79,4.61-13.76c0-5.97-1.49-10.56-4.48-13.76c-2.99-3.21-6.66-4.81-11.02-4.81
					c-4.45,0-8.15,1.58-11.09,4.74c-2.94,3.16-4.41,7.77-4.41,13.83c0,5.97,1.45,10.56,4.34,13.76c2.89,3.21,6.52,4.81,10.89,4.81
					C2140.81,90.62,2144.53,89.02,2147.6,85.81z"/>
			</g>
			<g>
				<path class="st0" d="M2187.81,51.74c3.16-5.79,7.57-10.24,13.23-13.36c5.65-3.12,12.13-4.68,19.44-4.68
					c9.35,0,17.17,2.45,23.45,7.35c0.81,0.63,1.58,1.3,2.32,2c7.1,6.72,2.1,18.71-7.67,18.71h-0.24c-3.41,0-6.57-1.63-8.68-4.31
					c-2.24-2.83-5.43-4.24-9.57-4.24c-4.19,0-7.53,1.63-10.02,4.88c-2.49,3.25-3.74,7.91-3.74,13.96c0,6.06,1.25,10.71,3.74,13.96
					c2.49,3.25,5.83,4.88,10.02,4.88c4.14,0,7.33-1.41,9.57-4.24c2.12-2.67,5.28-4.31,8.68-4.31l0,0c10.01,0,14.74,12.32,7.33,19.05
					c-0.58,0.53-1.18,1.04-1.8,1.53c-6.33,4.99-14.12,7.48-23.38,7.48c-7.3,0-13.78-1.56-19.44-4.68
					c-5.66-3.12-10.07-7.57-13.23-13.36c-3.16-5.79-4.74-12.56-4.74-20.31S2184.65,57.53,2187.81,51.74z"/>
			</g>
			<g>
				<path class="st0" d="M2268.24,51.74c2.89-5.79,6.83-10.24,11.82-13.36c4.99-3.12,10.55-4.68,16.7-4.68
					c5.25,0,9.86,1.07,13.83,3.21c3.96,2.14,7.01,4.94,9.15,8.42v0c0-5.83,4.73-10.56,10.55-10.56h1.74
					c5.83,0,10.55,4.73,10.55,10.56v64h-22.85V98.77c-2.23,3.47-5.32,6.28-9.29,8.42c-3.96,2.14-8.57,3.21-13.83,3.21
					c-6.06,0-11.58-1.58-16.57-4.74c-4.99-3.16-8.93-7.66-11.82-13.49c-2.9-5.83-4.34-12.58-4.34-20.24
					C2263.9,64.26,2265.35,57.53,2268.24,51.74z M2315,58.56c-3.16-3.29-7.01-4.94-11.56-4.94c-4.54,0-8.4,1.63-11.56,4.88
					c-3.16,3.25-4.74,7.73-4.74,13.43c0,5.7,1.58,10.22,4.74,13.56c3.16,3.34,7.01,5.01,11.56,5.01c4.54,0,8.39-1.65,11.56-4.94
					c3.16-3.29,4.74-7.79,4.74-13.49C2319.75,66.35,2318.16,61.85,2315,58.56z"/>
			</g>
			<g>
				<path class="st0" d="M2382,21.88v87.44h-22.85V21.88c0-6.31,5.11-11.42,11.42-11.42l0,0C2376.89,10.46,2382,15.57,2382,21.88z"
					/>
			</g>
			<g>
				<path class="st0" d="M2427.09,51.74c3.16-5.79,7.57-10.24,13.23-13.36c5.65-3.12,12.13-4.68,19.44-4.68
					c9.35,0,17.17,2.45,23.45,7.35c0.81,0.63,1.58,1.3,2.32,2c7.1,6.72,2.1,18.71-7.67,18.71h-0.24c-3.41,0-6.57-1.63-8.68-4.31
					c-2.24-2.83-5.43-4.24-9.57-4.24c-4.19,0-7.53,1.63-10.02,4.88c-2.49,3.25-3.74,7.91-3.74,13.96c0,6.06,1.25,10.71,3.74,13.96
					c2.49,3.25,5.83,4.88,10.02,4.88c4.14,0,7.33-1.41,9.57-4.24c2.12-2.67,5.28-4.31,8.68-4.31l0,0c10.01,0,14.74,12.32,7.33,19.05
					c-0.58,0.53-1.18,1.04-1.8,1.53c-6.33,4.99-14.12,7.48-23.38,7.48c-7.3,0-13.78-1.56-19.44-4.68
					c-5.66-3.12-10.07-7.57-13.23-13.36c-3.16-5.79-4.74-12.56-4.74-20.31S2423.93,57.53,2427.09,51.74z"/>
			</g>
			<g>
				<path class="st0" d="M2509.39,23.49c-2.54-2.36-3.81-5.28-3.81-8.75c0-3.56,1.27-6.52,3.81-8.89c2.54-2.36,5.81-3.54,9.82-3.54
					c3.92,0,7.15,1.18,9.69,3.54c2.54,2.36,3.81,5.32,3.81,8.89c0,3.47-1.27,6.39-3.81,8.75c-2.54,2.36-5.77,3.54-9.69,3.54
					C2515.2,27.03,2511.93,25.85,2509.39,23.49z M2530.57,46.2v63.13h-22.85V46.2c0-6.31,5.11-11.42,11.42-11.42l0,0
					C2525.46,34.78,2530.57,39.89,2530.57,46.2z"/>
			</g>
			<g>
				<path class="st0" d="M2620.75,46.13v63.19h-22.85V99.17c-2.32,3.3-5.46,5.95-9.42,7.95c-3.96,2-8.35,3.01-13.16,3.01
					c-5.7,0-10.73-1.27-15.1-3.81c-4.36-2.54-7.75-6.21-10.15-11.02c-2.41-4.81-3.61-10.47-3.61-16.97v-32.2
					c0-6.27,5.08-11.36,11.36-11.36l0,0c6.27,0,11.36,5.08,11.36,11.36v29.13c0,4.99,1.29,8.86,3.88,11.62
					c2.58,2.76,6.06,4.14,10.42,4.14c4.45,0,7.97-1.38,10.55-4.14c2.58-2.76,3.87-6.63,3.87-11.62V46.13
					c0-6.27,5.08-11.36,11.36-11.36h0.13C2615.67,34.78,2620.75,39.86,2620.75,46.13z"/>
			</g>
			<g>
				<path class="st0" d="M2636.98,51.74c2.89-5.79,6.83-10.24,11.82-13.36c4.99-3.12,10.55-4.68,16.7-4.68
					c4.9,0,9.37,1.02,13.43,3.07c4.05,2.05,7.24,4.81,9.55,8.28V21.88c0-6.31,5.11-11.42,11.42-11.42l0,0
					c6.31,0,11.42,5.11,11.42,11.42v87.44h-22.85V98.64c-2.14,3.56-5.19,6.41-9.15,8.55c-3.96,2.14-8.57,3.21-13.83,3.21
					c-6.15,0-11.71-1.58-16.7-4.74c-4.99-3.16-8.93-7.66-11.82-13.49c-2.9-5.83-4.34-12.58-4.34-20.24
					C2632.64,64.26,2634.09,57.53,2636.98,51.74z M2683.75,58.56c-3.16-3.29-7.01-4.94-11.56-4.94c-4.54,0-8.4,1.63-11.56,4.88
					c-3.16,3.25-4.74,7.73-4.74,13.43c0,5.7,1.58,10.22,4.74,13.56c3.16,3.34,7.01,5.01,11.56,5.01c4.54,0,8.39-1.65,11.56-4.94
					c3.16-3.29,4.74-7.79,4.74-13.49C2688.49,66.35,2686.91,61.85,2683.75,58.56z"/>
			</g>
			<g>
				<path class="st0" d="M2727.7,51.74c2.89-5.79,6.83-10.24,11.82-13.36c4.99-3.12,10.55-4.68,16.7-4.68
					c5.25,0,9.86,1.07,13.83,3.21c3.96,2.14,7.01,4.94,9.15,8.42v0c0-5.83,4.73-10.56,10.55-10.56h1.74
					c5.83,0,10.55,4.73,10.55,10.56v64h-22.85V98.77c-2.23,3.47-5.32,6.28-9.29,8.42c-3.96,2.14-8.57,3.21-13.83,3.21
					c-6.06,0-11.58-1.58-16.57-4.74c-4.99-3.16-8.93-7.66-11.82-13.49c-2.9-5.83-4.34-12.58-4.34-20.24
					C2723.36,64.26,2724.8,57.53,2727.7,51.74z M2774.46,58.56c-3.16-3.29-7.01-4.94-11.56-4.94c-4.54,0-8.4,1.63-11.56,4.88
					c-3.16,3.25-4.74,7.73-4.74,13.43c0,5.7,1.58,10.22,4.74,13.56c3.16,3.34,7.01,5.01,11.56,5.01c4.54,0,8.39-1.65,11.56-4.94
					c3.16-3.29,4.74-7.79,4.74-13.49C2779.2,66.35,2777.62,61.85,2774.46,58.56z"/>
			</g>
			<g>
				<path class="st0" d="M2818.41,51.74c2.89-5.79,6.83-10.24,11.82-13.36c4.99-3.12,10.56-4.68,16.7-4.68
					c4.9,0,9.37,1.02,13.43,3.07c4.05,2.05,7.24,4.81,9.55,8.28V21.88c0-6.31,5.11-11.42,11.42-11.42l0,0
					c6.31,0,11.42,5.11,11.42,11.42v87.44h-22.85V98.64c-2.14,3.56-5.19,6.41-9.15,8.55c-3.96,2.14-8.57,3.21-13.83,3.21
					c-6.15,0-11.71-1.58-16.7-4.74c-4.99-3.16-8.93-7.66-11.82-13.49c-2.9-5.83-4.34-12.58-4.34-20.24
					C2814.07,64.26,2815.52,57.53,2818.41,51.74z M2865.18,58.56c-3.16-3.29-7.01-4.94-11.56-4.94c-4.54,0-8.4,1.63-11.56,4.88
					c-3.16,3.25-4.74,7.73-4.74,13.43c0,5.7,1.58,10.22,4.74,13.56c3.16,3.34,7.01,5.01,11.56,5.01c4.54,0,8.39-1.65,11.56-4.94
					c3.16-3.29,4.74-7.79,4.74-13.49C2869.92,66.35,2868.34,61.85,2865.18,58.56z"/>
			</g>
			<g>
				<path class="st0" d="M2909.13,51.74c2.89-5.79,6.83-10.24,11.82-13.36c4.99-3.12,10.55-4.68,16.7-4.68
					c5.25,0,9.86,1.07,13.83,3.21c3.96,2.14,7.01,4.94,9.15,8.42v-0.67c0-5.46,4.43-9.89,9.89-9.89h3.07c5.46,0,9.89,4.43,9.89,9.89
					v64.66h-22.85V98.77c-2.23,3.47-5.32,6.28-9.29,8.42c-3.96,2.14-8.57,3.21-13.83,3.21c-6.06,0-11.58-1.58-16.57-4.74
					c-4.99-3.16-8.93-7.66-11.82-13.49c-2.9-5.83-4.34-12.58-4.34-20.24C2904.79,64.26,2906.23,57.53,2909.13,51.74z M2955.89,58.56
					c-3.16-3.29-7.01-4.94-11.56-4.94c-4.54,0-8.4,1.63-11.56,4.88c-3.16,3.25-4.74,7.73-4.74,13.43c0,5.7,1.58,10.22,4.74,13.56
					c3.16,3.34,7.01,5.01,11.56,5.01c4.54,0,8.39-1.65,11.56-4.94c3.16-3.29,4.74-7.79,4.74-13.49
					C2960.63,66.35,2959.05,61.85,2955.89,58.56z"/>
			</g>
			<g>
				<path class="st0" d="M3066.38,42.46c5.21,5.66,7.82,13.43,7.82,23.31v43.55h-22.71V68.85c0-4.99-1.29-8.86-3.87-11.62
					c-2.58-2.76-6.06-4.14-10.42-4.14c-4.36,0-7.84,1.38-10.42,4.14c-2.58,2.76-3.87,6.64-3.87,11.62v40.48h-22.85V44.66
					c0-5.46,4.43-9.89,9.89-9.89h3.07c5.46,0,9.89,4.43,9.89,9.89v0c2.32-3.29,5.43-5.9,9.35-7.82c3.92-1.91,8.33-2.87,13.23-2.87
					C3054.2,33.97,3061.17,36.8,3066.38,42.46z"/>
			</g>
			<g>
				<path class="st0" d="M3089.89,51.74c2.89-5.79,6.83-10.24,11.82-13.36c4.99-3.12,10.56-4.68,16.7-4.68
					c5.25,0,9.86,1.07,13.83,3.21c3.96,2.14,7.01,4.94,9.15,8.42v0c0-5.83,4.73-10.56,10.55-10.56h1.74
					c5.83,0,10.55,4.73,10.55,10.56v64h-22.85V98.77c-2.23,3.47-5.32,6.28-9.29,8.42c-3.96,2.14-8.57,3.21-13.83,3.21
					c-6.06,0-11.58-1.58-16.57-4.74c-4.99-3.16-8.93-7.66-11.82-13.49c-2.9-5.83-4.34-12.58-4.34-20.24
					C3085.55,64.26,3087,57.53,3089.89,51.74z M3136.66,58.56c-3.16-3.29-7.01-4.94-11.56-4.94c-4.54,0-8.4,1.63-11.56,4.88
					c-3.16,3.25-4.74,7.73-4.74,13.43c0,5.7,1.58,10.22,4.74,13.56c3.16,3.34,7.01,5.01,11.56,5.01c4.54,0,8.39-1.65,11.56-4.94
					c3.16-3.29,4.74-7.79,4.74-13.49C3141.4,66.35,3139.82,61.85,3136.66,58.56z"/>
			</g>
		</g>
		<g>
			<g>
				<path class="st1" d="M1378.02,254.13c-14.13,8.41-26.14,19.83-36.06,34.25l0-1.79c-0.01-23.66-19.19-42.83-42.84-42.83h-1.11
					c-24.62,0-44.39,19.78-44.39,44.18c0.01,72.44,0.01,208.52,0.01,208.67c0,0,0,0,0,0h88.33c0,0,0,0,0,0V386.19
					c0-18.63,4.66-31.7,13.97-39.21c9.31-7.51,23.58-11.27,42.81-11.27l0,0c13.69,0,24.79-11.1,24.79-24.79v-30.76
					c0-23.14-25.15-38.01-45.1-26.27C1378.3,253.96,1378.16,254.05,1378.02,254.13z"/>
			</g>
			<g>
				<path class="st1" d="M1675.93,243.76h-18.03c-19.41,0-35.15,15.74-35.15,35.15v0c-6.92-11.72-16.68-21.02-29.29-27.94
					c-12.62-6.91-27.65-10.37-45.07-10.37c-20.13,0-38.39,5.26-54.76,15.78c-16.38,10.52-29.29,25.54-38.76,45.07
					c-9.46,19.53-14.19,42.36-14.19,68.51c0,26.14,4.73,49.06,14.19,68.73c9.47,19.68,22.38,34.78,38.76,45.29
					c16.37,10.52,34.63,15.78,54.76,15.78c17.13,0,32.07-3.45,44.85-10.37c12.77-6.91,22.6-16.23,29.52-27.94v35.16h88.34
					c0,0,0,0,0,0V278.92C1711.09,259.5,1695.35,243.76,1675.93,243.76z M1609.45,408.72c-8.87,9.32-19.76,13.97-32.68,13.97
					c-13.23,0-24.19-4.74-32.9-14.2c-8.72-9.46-13.07-22.31-13.07-38.53c0-16.53,4.35-29.37,13.07-38.54
					c8.71-9.16,19.68-13.74,32.9-13.74c12.91,0,23.81,4.66,32.68,13.97c8.86,9.32,13.29,22.08,13.29,38.31
					C1622.75,386.49,1618.31,399.41,1609.45,408.72z"/>
			</g>
			<g>
				<path class="st1" d="M1918.68,241.51c-17.13,0-32.3,3.53-45.52,10.59c-13.22,7.06-23.74,16.31-31.55,27.72v0
					c0-19.91-16.14-36.06-36.06-36.06h-16.22c-19.91,0-36.06,16.14-36.06,36.06v216.79h88.34V360.95c0-14.42,3.76-25.76,11.27-34.03
					c7.51-8.26,17.88-12.39,31.1-12.39c12.62,0,22.68,4.13,30.19,12.39c7.51,8.27,11.27,19.61,11.27,34.03v135.66h88.34V349.23
					c0-33.05-8.56-59.26-25.69-78.64C1970.96,251.2,1947.82,241.51,1918.68,241.51z"/>
			</g>
			<g>
				<path class="st1" d="M2294.69,178.86H2108.1c-19.42,0-35.16,15.74-35.16,35.16v0c0,19.42,15.74,35.16,35.16,35.16h48.68v0
					v247.43h0.9h87.44h0.9V249.18v0h48.68c19.42,0,35.16-15.74,35.16-35.16v0C2329.84,194.6,2314.1,178.86,2294.69,178.86z"/>
			</g>
			<g>
				<path class="st1" d="M2407.73,243.76L2407.73,243.76c-24.39,0-44.17,19.78-44.17,44.17v208.68h88.34V287.93
					C2451.9,263.54,2432.13,243.76,2407.73,243.76z"/>
			</g>
			<g>
				<path class="st1" d="M2629.19,421.34c-7.51,0-12.84-1.5-16-4.51c-3.16-3-4.73-7.96-4.73-14.87v-84.73h24.26
					c11.99,0,21.71-9.72,21.71-21.71v-30.04c0-11.99-9.72-21.71-21.71-21.71h-24.26v-16.9c0-24.52-19.88-44.39-44.39-44.39l0,0
					c-24.52,0-44.39,19.88-44.39,44.39v16.9h-9.39c-11.99,0-21.71,9.72-21.71,21.71v30.04c0,11.99,9.72,21.71,21.71,21.71h9.39
					v83.38c0,64,32.3,96,96.9,96h38.31v-55.73c0-10.79-8.75-19.54-19.54-19.54H2629.19z"/>
			</g>
			<g>
				<path class="st1" d="M2911.48,243.76h-12.84c-13.12,0-24.94,6.37-33.94,15.92c-3.22,3.41-8.83,4.3-12.94,0.78
					c-4.15-3.55-8.75-6.71-13.82-9.49c-12.62-6.91-27.65-10.37-45.07-10.37c-20.13,0-38.39,5.26-54.76,15.78
					c-16.38,10.52-29.29,25.54-38.76,45.07c-9.46,19.53-14.19,42.36-14.19,68.51c0,26.14,4.73,49.06,14.19,68.73
					c9.47,19.68,22.38,34.78,38.76,45.29c16.37,10.52,34.63,15.78,54.76,15.78c17.13,0,32.07-3.45,44.85-10.37
					c12.76-6.91,22.6-16.23,29.52-27.95v35.16v0h88.34V287.86C2955.58,263.51,2935.84,243.76,2911.48,243.76z M2853.95,408.72
					c-8.87,9.32-19.76,13.97-32.68,13.97c-13.23,0-24.19-4.74-32.91-14.2c-8.72-9.46-13.07-22.31-13.07-38.53
					c0-16.53,4.35-29.37,13.07-38.54c8.71-9.16,19.68-13.74,32.91-13.74c12.91,0,23.81,4.66,32.68,13.97
					c8.86,9.32,13.29,22.08,13.29,38.31C2867.24,386.49,2862.81,399.41,2853.95,408.72z"/>
			</g>
			<g>
				<path class="st1" d="M2848.99,214.53l62.81-24.62c11.45-4.49,18.98-15.53,18.98-27.83v0c0-21.71-22.42-36.18-42.21-27.24
					l-57.16,25.84c-8.1,3.66-13.31,11.73-13.31,20.62v12.17C2818.1,209.41,2834.15,220.35,2848.99,214.53z"/>
			</g>
			<g>
				<path class="st1" d="M3225.96,270.58c-17.13-19.38-40.27-29.07-69.41-29.07c-17.12,0-32.3,3.53-45.52,10.59
					c-13.22,7.06-23.73,16.3-31.55,27.72v0c0-19.91-16.14-36.05-36.05-36.05h-16.23c-19.91,0-36.05,16.14-36.05,36.05v216.79h88.34
					V360.95c0-14.42,3.76-25.76,11.27-34.03c7.51-8.26,17.88-12.39,31.1-12.39c12.62,0,22.68,4.13,30.19,12.39
					c7.51,8.27,11.27,19.61,11.27,34.03v135.66h88.34V349.23C3251.64,316.18,3243.08,289.96,3225.96,270.58z"/>
			</g>
			<g>
				<g>
					<g>
						<path class="st1" d="M1169.45,496.59c-22.04,0-39.9-17.86-39.9-39.9V321.9H992.87c-22.04,0-39.9-17.86-39.9-39.9
							s17.86-39.9,39.9-39.9h176.25c22.18,0,40.23,18.05,40.23,40.23v174.36C1209.35,478.72,1191.49,496.59,1169.45,496.59z
							 M1169.12,321.9L1169.12,321.9L1169.12,321.9z"/>
					</g>
				</g>
				<g>
					<g>
						<path class="st1" d="M1143.99,403.25c-1.43,1.36-35.35,29.07-35.47,29.47c-37.26,25.68-79.48,45.79-125.28,50.11
							c-54.79,4.07-111.52-11.38-154.87-45.55c-47.42-36.59-76.6-93.69-82.47-152.61c-1.78-16.2-1.94-32.69,0.42-48.82
							c12.82-86.82,81.37-162.31,164.4-187.58c31.76-9.34,66.89-11.88,98.58-1.73c-20.2-3.63-40.52-2.2-60.17,2.47
							c-85.2,20.1-155.73,103.1-157.49,190.52c0.27,41.54,18.57,85.48,46.63,114.19c34.1,35.56,83.87,49.37,131.1,39.78
							c27.06-6.4,52.96-24.34,73.86-43.5c0,0-3.32,2.85-3.32,2.85l28.75-30.26c21.03-22.13,56.02-23.03,78.15-2
							C1170.81,343.07,1169.41,382.46,1143.99,403.25L1143.99,403.25z"/>
					</g>
				</g>
				<g>
					<g>
						<path class="st1" d="M839.93,298.98c-13.62-32.44-14.12-69.77-4.34-103.41c24.74-82.99,108.83-135.52,194.26-122
							c25.28,4.04,49.73,13.71,70.54,28.67c16.22,11.6,30.3,26.23,40.6,43.15c-13.23-10.59-26.75-19.84-41.83-27.2
							c-47.27-23.7-104.49-26.04-152.95-4.54c-39.73,17.39-71.96,49.97-89.82,89.55C842.9,233.1,837.88,266.2,839.93,298.98
							L839.93,298.98z"/>
					</g>
				</g>
			</g>
			<g>
				<circle class="st1" cx="2407.73" cy="186.42" r="45.98"/>
			</g>
		</g>
		<g>
			<path class="st2" d="M371.38,166c-22.94-21.77-51.06-37.41-81.65-44.63c-44.97-10.58-88.35-1.17-122.09,26.66
				c-46.36,38.19-74.83,101.44-74.31,165.12l0.56,35.12l1.04,71.84c0,1.86-0.09,3.67-0.35,5.49l0.35,20.82
				c0,11.66-9.46,21.13-21.13,21.13H22.35c-11.66,0-21.13-9.46-21.13-21.13V327.32l0.04-8.12l0.13-14.95c-0.04-3.2,0-6.39,0.09-9.55
				c9.72-62.77,37.41-122.05,84.98-164.47c56.42-50.37,136.09-65.06,204.86-31.45C323.12,113.99,350.17,137.66,371.38,166z"/>
			<path class="st2" d="M523.92,394.8c-6,65.28-52.45,109.65-118.42,113.02c-49.9,2.55-111.2-51.02-119.24-104.2
				c-2.25-14.86-1.73-41.04-1.3-64.15c0.35-17.58,0.69-34.17-0.34-40.31c-3.28-19.35-15.81-21.77-27.65-21.6l-1.17,0.04
				c-5.23,0-21.77,7.73-22.03,25.62l-0.22,11.66c-0.91,49.42-2.03,110.94,18.06,154.14c20.74,44.58,57.89,79.36,101.91,95.39
				c40.05,14.6,83.03,12.87,121.01-4.88c3.46-1.6,6.78-3.33,10.07-5.1c-28.17,24.97-62.08,42.86-100.75,49.64
				c-41.82,7.52-85.71-0.3-122.78-21c-58.5-32.36-96.77-90.38-114.66-154.23c-1.81-10.89-3.2-22.12-4.23-33.74
				c-3.2-36.07,0.43-67.05,4.67-102.95l0.17-1.51c5.06-43.16,27.09-78.15,60.48-96.04c31.45-16.89,69.64-16.29,104.85,1.6
				c41.39,21.04,62.82,59.23,65.62,116.77c0,18.75-1.08,31.84-2.07,43.37c-0.86,10.76-1.64,20.05-1.3,30.93
				c0.52,14.99,18.41,23.76,30.59,24.06c12.66,0.3,24.58-13.57,25.19-29.16l0.22-5.75c1.47-36.29,3.02-73.49-3.8-108.7
				c-3.33-79.58-48.17-160.49-120.71-198.17c-57.89-31.23-129.13-30.89-187.11,0.04c-10.11,5.31-19.66,11.45-28.64,18.32
				c95.69-92.58,236.18-95.91,335.68-7.34c64.11,57.11,97.51,131.12,99.19,220.07l0.17,7.56
				C525.95,336.61,526.56,365.94,523.92,394.8z"/>
			<path class="st2" d="M666.06,396.61c0,100.23-62.21,219.16-182.27,259.38c-28.34,9.5-56.08,14.21-83.08,14.21
				c-42.6,0-83.47-11.79-122.09-35.38c-10.54-6.44-20.43-13.35-29.77-20.74c12.96,7.47,26.83,13.52,41.52,17.97
				c154.96,47.52,284.76-91.6,284.4-243.83c0,0,0.09-120.4,0.04-127.36v-0.78c1.17-21.9,18.66-39.66,40.96-41.86
				c0.26,0,0.52-0.04,0.78-0.04c0.99-0.09,1.99-0.13,2.94-0.13c4.32,0,8.47,0.48,12.36,1.34c0.74,0.22,1.43,0.39,2.16,0.6
				c13.31,4.06,24.02,13.87,28.99,26.44c0.69,1.81,1.17,3.72,1.51,5.66c0.56,3.37,0.95,16.11,1.17,34.95
				C666.02,314.19,666.06,353.97,666.06,396.61z"/>
			<path class="st2" d="M371.38,166c-22.94-21.77-51.06-37.41-81.65-44.63c-44.97-10.58-88.35-1.17-122.09,26.66
				c-46.36,38.19-74.83,101.44-74.31,165.12l0.56,35.12l1.04,71.84c0,1.86-0.09,3.67-0.35,5.49l0.35,20.82
				c0,11.66-9.46,21.13-21.13,21.13H22.35c-11.66,0-21.13-9.46-21.13-21.13V327.32l0.04-8.12l0.13-14.95c-0.04-3.2,0-6.39,0.09-9.55
				c9.72-62.77,37.41-122.05,84.98-164.47c56.42-50.37,136.09-65.06,204.86-31.45C323.12,113.99,350.17,137.66,371.38,166z"/>
			<path class="st2" d="M523.92,394.8c-6,65.28-52.45,109.65-118.42,113.02c-49.9,2.55-111.2-51.02-119.24-104.2
				c-2.25-14.86-1.73-41.04-1.3-64.15c0.35-17.58,0.69-34.17-0.34-40.31c-3.28-19.35-15.81-21.77-27.65-21.6l-1.17,0.04
				c-5.23,0-21.77,7.73-22.03,25.62l-0.22,11.66c-0.91,49.42-2.03,110.94,18.06,154.14c20.74,44.58,57.89,79.36,101.91,95.39
				c40.05,14.6,83.03,12.87,121.01-4.88c3.46-1.6,6.78-3.33,10.07-5.1c-28.17,24.97-62.08,42.86-100.75,49.64
				c-41.82,7.52-85.71-0.3-122.78-21c-58.5-32.36-96.77-90.38-114.66-154.23c-1.81-10.89-3.2-22.12-4.23-33.74
				c-3.2-36.07,0.43-67.05,4.67-102.95l0.17-1.51c5.06-43.16,27.09-78.15,60.48-96.04c31.45-16.89,69.64-16.29,104.85,1.6
				c41.39,21.04,62.82,59.23,65.62,116.77c0,18.75-1.08,31.84-2.07,43.37c-0.86,10.76-1.64,20.05-1.3,30.93
				c0.52,14.99,18.41,23.76,30.59,24.06c12.66,0.3,24.58-13.57,25.19-29.16l0.22-5.75c1.47-36.29,3.02-73.49-3.8-108.7
				c-3.33-79.58-48.17-160.49-120.71-198.17c-57.89-31.23-129.13-30.89-187.11,0.04c-10.11,5.31-19.66,11.45-28.64,18.32
				c95.69-92.58,236.18-95.91,335.68-7.34c64.11,57.11,97.51,131.12,99.19,220.07l0.17,7.56
				C525.95,336.61,526.56,365.94,523.92,394.8z"/>
			<path class="st2" d="M666.06,396.61c0,100.23-62.21,219.16-182.27,259.38c-28.34,9.5-56.08,14.21-83.08,14.21
				c-42.6,0-83.47-11.79-122.09-35.38c-10.54-6.44-20.43-13.35-29.77-20.74c12.96,7.47,26.83,13.52,41.52,17.97
				c154.96,47.52,284.76-91.6,284.4-243.83c0,0,0.09-120.4,0.04-127.36v-0.78c1.17-21.9,18.66-39.66,40.96-41.86
				c0.26,0,0.52-0.04,0.78-0.04c0.99-0.09,1.99-0.13,2.94-0.13c4.32,0,8.47,0.48,12.36,1.34c0.74,0.22,1.43,0.39,2.16,0.6
				c13.31,4.06,24.02,13.87,28.99,26.44c0.69,1.81,1.17,3.72,1.51,5.66c0.56,3.37,0.95,16.11,1.17,34.95
				C666.02,314.19,666.06,353.97,666.06,396.61z"/>
		</g>
	</g>
	<rect class="st3" width="3252.87" height="716"/>
</g>
</svg>
